<svg width="154" height="150" viewBox="0 0 154 150" fill="none" xmlns="http://www.w3.org/2000/svg">
<path fill-rule="evenodd" clip-rule="evenodd" d="M62.25 0.28097C59.912 0.53097 58 1.10697 58 1.56197C58 2.01697 55.525 2.69897 52.5 3.07697C49.475 3.45497 47 4.09597 47 4.50297C47 4.90897 44.75 5.81897 42 6.52297C39.25 7.22797 37 8.17697 37 8.63297C37 9.08797 35.65 9.75797 34 10.12C32.35 10.482 31 11.207 31 11.731C31 12.254 30.213 12.979 29.25 13.342C26.268 14.465 12.114 29.319 11.43 32.042C11.074 33.46 10.431 34.62 10 34.62C9.569 34.62 8.907 35.853 8.529 37.36C8.151 38.867 7.326 40.419 6.695 40.808C5.966 41.259 5.44 45.877 5.248 53.507L4.948 65.498L7.974 68.593C10.188 70.858 11 72.638 11 75.226C11 78.542 9.216 81.62 7.294 81.62C6.079 81.62 3.32 85.037 2.534 87.513C2.166 88.672 1.446 89.62 0.932999 89.62C0.419999 89.62 0 91.645 0 94.12C0 96.595 0.45 98.62 1 98.62C1.55 98.62 2 99.263 2 100.049C2 100.834 2.614 102.091 3.365 102.842C4.116 103.593 4.934 107.036 5.184 110.493C5.435 113.95 6.124 117.081 6.717 117.449C7.327 117.829 7.947 122.419 8.147 128.037C8.388 134.818 8.895 138.086 9.75 138.371C10.438 138.599 11 139.266 11 139.852C11 141.962 18.231 147.883 21.827 148.719C27.421 150.019 128.677 149.837 133.426 148.519C137.849 147.291 143.642 141.895 144.589 138.122C144.934 136.746 145.618 135.62 146.108 135.62C146.599 135.62 147 132.052 147 127.691C147 121.474 147.378 119.385 148.75 118.013C150.061 116.702 150.518 114.533 150.571 109.361C150.619 104.738 151.085 102.186 151.981 101.632C153.998 100.385 154.579 90.341 152.741 88.504C151.928 87.691 150.956 86.058 150.581 84.875C150.205 83.691 148.908 82.414 147.699 82.036C144.69 81.098 144.033 79.821 144.015 74.87C144.006 72.188 144.449 70.62 145.218 70.62C145.888 70.62 147.492 69.392 148.782 67.89C151.024 65.281 151.097 64.716 150.428 55.14C150.044 49.629 149.397 44.895 148.99 44.62C148.584 44.345 147.934 42.658 147.546 40.87C147.158 39.082 146.463 37.62 146 37.62C145.537 37.62 144.862 36.27 144.5 34.62C144.138 32.97 143.427 31.62 142.921 31.62C142.414 31.62 142 30.961 142 30.156C142 28.665 127.527 13.62 126.092 13.62C125.66 13.62 124.268 12.72 123 11.62C121.732 10.52 120.125 9.61997 119.43 9.61997C118.735 9.61997 118.017 9.17397 117.833 8.62897C117.65 8.08497 115.137 7.07797 112.25 6.39297C109.363 5.70697 107 4.83097 107 4.44497C107 4.05797 104.863 3.42797 102.25 3.04197C99.637 2.65697 97.229 1.92397 96.898 1.41197C96.251 0.41097 69.277 -0.46903 62.25 0.28097ZM93.5 6.71997C98.45 7.32097 102.645 8.20597 102.823 8.68497C103 9.16397 104.688 9.84597 106.573 10.2C108.458 10.553 110 11.207 110 11.652C110 12.097 111.35 12.758 113 13.12C114.65 13.482 116 14.193 116 14.699C116 15.206 116.583 15.62 117.297 15.62C118.717 15.62 122.31 18.123 124.836 20.87C125.721 21.832 127.019 22.62 127.722 22.62C128.425 22.62 129 22.994 129 23.451C129 23.908 130.137 24.891 131.527 25.634C132.917 26.378 134.307 27.997 134.617 29.231C134.927 30.465 135.815 31.719 136.59 32.016C137.366 32.314 138 33.246 138 34.089C138 34.931 138.444 35.62 138.986 35.62C139.528 35.62 140.481 37.645 141.104 40.12C141.728 42.595 142.634 44.62 143.119 44.62C144.556 44.62 144.121 50.642 142.571 52.191C141.363 53.4 131.203 53.62 76.59 53.62H12.038L11.409 51.113C10.636 48.032 11.741 41.62 13.045 41.62C13.57 41.62 14 40.752 14 39.691C14 38.631 14.563 37.168 15.25 36.441C15.938 35.715 17.175 33.77 18 32.12C19.861 28.398 25.183 23.014 27.832 22.173C28.923 21.827 30.068 20.886 30.376 20.082C30.685 19.278 31.626 18.62 32.469 18.62C33.311 18.62 34 18.2 34 17.687C34 17.174 34.992 16.44 36.203 16.055C37.415 15.671 39.022 14.741 39.775 13.988C40.527 13.236 41.786 12.62 42.571 12.62C43.357 12.62 44 12.228 44 11.748C44 11.268 45.8 10.588 48 10.236C50.2 9.88397 52 9.19397 52 8.70297C52 6.23297 78.912 4.94597 93.5 6.71997ZM74.184 13.37C74.372 15.007 75.107 16.12 76 16.12C76.893 16.12 77.628 15.007 77.816 13.37C78.074 11.131 77.737 10.62 76 10.62C74.263 10.62 73.926 11.131 74.184 13.37ZM87 15.393C87 18.353 87.14 18.44 93 19.12C96.3 19.503 99 20.183 99 20.63C99 21.078 100.8 21.748 103 22.12C105.2 22.492 107 23.134 107 23.548C107 23.961 108.8 24.894 111 25.62C113.2 26.346 115 27.332 115 27.811C115 28.291 115.787 28.975 116.75 29.333C119.081 30.199 126 37.532 126 39.137C126 39.835 126.675 40.665 127.5 40.982C128.325 41.298 129 42.246 129 43.089C129 43.931 129.45 44.62 130 44.62C130.55 44.62 131 45.295 131 46.12C131 47.69 132.738 48.041 135.418 47.013C137.081 46.375 137.641 43.62 136.108 43.62C135.618 43.62 134.912 42.405 134.539 40.921C134.167 39.436 132.768 37.207 131.431 35.968C130.094 34.729 129 33.31 129 32.814C129 31.41 124.778 27.272 121.742 25.701C120.234 24.921 119 23.944 119 23.53C119 23.117 117.65 22.482 116 22.12C114.35 21.758 113 21.083 113 20.62C113 20.157 111.65 19.482 110 19.12C108.35 18.758 107 18.083 107 17.62C107 17.157 105.537 16.462 103.75 16.074C101.963 15.686 100.27 15.01 99.988 14.571C99.707 14.132 96.669 13.456 93.238 13.067L87 12.362V15.393ZM46 28.62C46 30.953 46.444 31.62 48 31.62C49.556 31.62 50 30.953 50 28.62C50 26.287 49.556 25.62 48 25.62C46.444 25.62 46 26.287 46 28.62ZM68.494 26.629C67.666 27.97 68.868 31.62 70.139 31.62C71.675 31.62 74 28.953 74 27.191C74 25.422 69.523 24.965 68.494 26.629ZM32.213 37.237C31.546 37.951 31 39.024 31 39.62C31 40.216 31.546 41.289 32.213 42.003C33.201 43.061 33.791 42.961 35.401 41.461C37.369 39.628 37.369 39.612 35.401 37.779C33.791 36.279 33.201 36.179 32.213 37.237ZM60 39.62C60 41.176 60.667 41.62 63 41.62C65.333 41.62 66 41.176 66 39.62C66 38.064 65.333 37.62 63 37.62C60.667 37.62 60 38.064 60 39.62ZM81.746 39.87C80.896 42.397 82.239 44.62 84.617 44.62C86.598 44.62 87 44.114 87 41.62C87 39.114 86.602 38.62 84.583 38.62C83.254 38.62 81.977 39.183 81.746 39.87ZM144.985 61.37C144.948 65.549 143.503 66.12 132.956 66.12C123.994 66.12 122.673 66.348 121.377 68.12C119.423 70.79 108.27 71.033 105.698 68.461C102.202 64.964 88.819 64.944 85.333 68.429C83.003 70.76 73.018 70.781 70.698 68.461C67.202 64.964 53.819 64.944 50.333 68.429C48.262 70.501 36.917 70.87 36.256 68.888C35.547 66.762 28.081 65.409 20.987 66.121C13.763 66.847 11 65.582 11 61.549C11 59.663 12.494 59.62 78 59.62C141.149 59.62 144.999 59.721 144.985 61.37ZM30.362 72.12C30.678 72.945 31.589 73.62 32.385 73.62C33.182 73.62 34.021 74.183 34.25 74.87C34.808 76.545 50.766 76.617 51.796 74.949C52.194 74.305 53.753 73.469 55.26 73.091C56.767 72.713 58 72.002 58 71.512C58 71.021 59.125 70.62 60.5 70.62C61.875 70.62 63 71.021 63 71.512C63 72.002 64.233 72.713 65.74 73.091C67.247 73.469 68.806 74.305 69.204 74.949C70.186 76.54 85.814 76.54 86.796 74.949C87.194 74.305 88.753 73.469 90.26 73.091C91.767 72.713 93 72.002 93 71.512C93 71.021 94.35 70.62 96 70.62C97.65 70.62 99 71.04 99 71.553C99 72.066 100.012 72.801 101.25 73.187C102.488 73.574 103.821 74.391 104.214 75.005C105.198 76.543 120.842 76.494 121.796 74.949C122.194 74.305 123.753 73.469 125.26 73.091C126.767 72.713 128 72.002 128 71.512C128 71.021 129.35 70.62 131 70.62C132.65 70.62 134 71.07 134 71.62C134 72.17 134.9 72.62 136 72.62C137.556 72.62 138 73.287 138 75.62V78.62H77.5H17V75.62C17 73.087 17.389 72.62 19.5 72.62C20.875 72.62 22 72.17 22 71.62C22 69.958 29.709 70.419 30.362 72.12ZM33.529 93.12C38.214 97.795 42.451 101.62 42.945 101.62C43.438 101.62 45.867 99.595 48.342 97.12C50.817 94.645 53.38 92.62 54.037 92.62C55.648 92.62 63 100.514 63 102.244C63 103.376 58.551 103.62 37.952 103.62H12.905L10.452 100.974C9.104 99.519 8 97.719 8 96.974C8 96.229 7.55 95.62 7 95.62C6.45 95.62 6 94.72 6 93.62C6 92.52 6.45 91.62 7 91.62C7.55 91.62 8 91.045 8 90.342C8 88.986 10.79 86.248 13.109 85.329C13.874 85.026 16.865 84.742 19.755 84.699L25.009 84.62L33.529 93.12ZM46.75 85.25C49.757 86.056 49.587 88.189 46.25 91.514L43.5 94.254L38.707 89.437L33.915 84.62L39.207 84.634C42.118 84.641 45.513 84.919 46.75 85.25ZM101 85.744C101 87.435 80.4 107.62 78.674 107.62C77.074 107.62 56 87.102 56 85.545C56 85.006 65.383 84.62 78.5 84.62C94.482 84.62 101 84.945 101 85.744ZM144.98 87.597C148.636 91.258 148.366 96.408 144.304 100.47L141.154 103.62H117.077C103.835 103.62 93 103.328 93 102.971C93 102.614 94.463 100.847 96.25 99.045C98.037 97.242 100.903 94.272 102.618 92.444C106.268 88.553 109.165 86.114 111.109 85.294C111.874 84.972 119.251 84.8 127.503 84.914C142.006 85.113 142.588 85.203 144.98 87.597ZM143.118 114.724C140.998 116.7 135 117.361 135 115.62C135 115.07 132.975 114.62 130.5 114.62C128.025 114.62 126 115.07 126 115.62C126 116.17 125.357 116.62 124.571 116.62C123.786 116.62 122.355 117.407 121.393 118.37C119.314 120.449 107.411 120.903 106.204 118.949C105.806 118.305 104.247 117.469 102.74 117.091C101.233 116.713 100 116.002 100 115.512C100 115.021 97.975 114.62 95.5 114.62C93.025 114.62 91 115.021 91 115.512C91 116.002 89.767 116.713 88.26 117.091C86.753 117.469 85.194 118.305 84.796 118.949C83.836 120.503 72.164 120.503 71.204 118.949C70.806 118.305 69.247 117.469 67.74 117.091C66.233 116.713 65 116.002 65 115.512C65 115.021 62.975 114.62 60.5 114.62C58.025 114.62 56 115.021 56 115.512C56 116.002 54.767 116.713 53.26 117.091C51.753 117.469 50.194 118.305 49.796 118.949C48.602 120.882 37.673 120.436 35.607 118.37C34.645 117.407 32.989 116.62 31.929 116.62C30.868 116.62 30 116.17 30 115.62C30 115.07 27.975 114.62 25.5 114.62C23.025 114.62 21 115.07 21 115.62C21 117.273 15.17 116.746 13.011 114.898C11.905 113.951 11 112.151 11 110.898V108.62H41.077H71.154L74.154 111.62C77.927 115.394 79.873 115.397 83.174 111.635L85.793 108.651L115.146 108.385L144.5 108.12L144.826 110.474C145.022 111.885 144.337 113.589 143.118 114.724ZM28 121.512C28 122.002 29.233 122.713 30.74 123.091C32.247 123.469 33.806 124.305 34.204 124.949C35.186 126.54 50.814 126.54 51.796 124.949C52.194 124.305 53.753 123.469 55.26 123.091C56.767 122.713 58 122.002 58 121.512C58 121.021 59.125 120.62 60.5 120.62C61.875 120.62 63 121.021 63 121.512C63 122.002 64.233 122.713 65.74 123.091C67.247 123.469 68.806 124.305 69.204 124.949C70.186 126.54 85.814 126.54 86.796 124.949C87.194 124.305 88.753 123.469 90.26 123.091C91.767 122.713 93 122.002 93 121.512C93 121.021 94.35 120.62 96 120.62C97.65 120.62 99 121.04 99 121.553C99 122.066 99.992 122.8 101.203 123.185C102.415 123.569 104.068 124.545 104.875 125.353C106.649 127.126 120.669 126.774 121.81 124.927C122.201 124.296 123.753 123.469 125.26 123.091C126.767 122.713 128 122.002 128 121.512C128 121.021 129.35 120.62 131 120.62C132.65 120.62 134 121.07 134 121.62C134 122.17 135.627 122.62 137.616 122.62H141.233L140.815 129.188C140.585 132.801 139.918 136.064 139.333 136.438C138.748 136.813 137.964 138.101 137.589 139.301C137.171 140.642 135.773 141.731 133.955 142.13C132.33 142.487 131 143.193 131 143.699C131 144.249 109.421 144.62 77.5 144.62C45.579 144.62 24 144.249 24 143.699C24 143.193 22.67 142.487 21.045 142.13C19.227 141.731 17.829 140.642 17.411 139.301C17.036 138.101 16.252 136.813 15.667 136.438C15.082 136.064 14.415 132.801 14.185 129.188L13.767 122.62H17.884C20.148 122.62 22 122.17 22 121.62C22 121.07 23.35 120.62 25 120.62C26.65 120.62 28 121.021 28 121.512Z" fill="#F64B3C"/>
</svg>
