<svg width="131" height="144" viewBox="0 0 131 144" fill="none" xmlns="http://www.w3.org/2000/svg">
<path fill-rule="evenodd" clip-rule="evenodd" d="M33.996 1.00714C33.996 1.55714 33.342 2.00714 32.543 2.00714C30.104 2.00714 26.457 4.04014 25.155 6.12414C23.816 8.26814 24.564 15.0071 26.142 15.0071C27.104 15.0071 40.996 28.5361 40.996 29.4731C40.996 29.7661 40.321 30.0071 39.496 30.0071C38.663 30.0071 37.996 30.8961 37.996 32.0071C37.996 33.3401 38.663 34.0071 39.996 34.0071C41.096 34.0071 41.996 33.5571 41.996 33.0071C41.996 32.4571 42.446 32.0071 42.996 32.0071C45.166 32.0071 43.835 34.0081 41.246 34.6371C39.733 35.0051 36.878 37.0381 34.9 39.1561C32.521 41.7031 30.428 43.0071 28.719 43.0071C26.801 43.0071 26.053 43.5871 25.816 45.2571C25.61 46.7031 24.692 47.6211 23.246 47.8271C20.127 48.2691 20.343 51.0071 23.496 51.0071C25.052 51.0071 25.996 50.4401 25.996 49.5071C25.996 48.6821 26.974 47.0291 28.17 45.8331C30.061 43.9421 30.25 43.9041 29.622 45.5381C27.19 51.8771 28.438 65.1951 31.578 66.4001C32.358 66.6991 32.996 67.6111 32.996 68.4261C32.996 69.2411 33.784 70.4061 34.746 71.0151C35.761 71.6581 35.896 71.9691 35.067 71.7561C33.933 71.4641 32.218 69.3561 31.389 67.2331C31.33 67.0831 30.543 67.2441 29.639 67.5901C27.325 68.4781 27.59 71.0071 29.996 71.0071C31.096 71.0071 31.996 71.6611 31.996 72.4601C31.996 73.2621 33.52 74.3341 35.396 74.8521C38.509 75.7111 46.996 83.3691 46.996 85.3191C46.996 85.7711 48.571 87.6271 50.496 89.4421C52.421 91.2581 54.004 93.1401 54.013 93.6251C54.023 94.1101 55.148 95.5671 56.513 96.8621C57.879 98.1571 58.996 99.7361 58.996 100.371C58.996 101.006 59.896 102.088 60.996 102.775C62.096 103.462 62.996 104.47 62.996 105.015C62.996 105.561 63.917 107.019 65.042 108.257C68.953 112.556 69.674 113.517 70.302 115.257C70.649 116.22 71.397 117.007 71.965 117.007C72.532 117.007 72.996 117.644 72.996 118.422C72.996 119.201 74.36 121.113 76.028 122.672C78.322 124.818 78.917 126.085 78.476 127.885C77.644 131.282 72.652 135.926 69.061 136.644C67.375 136.981 65.996 137.651 65.996 138.132C65.996 138.613 65.096 139.007 63.996 139.007C62.896 139.007 61.996 138.557 61.996 138.007C61.996 137.457 62.896 137.007 63.996 137.007C65.291 137.007 65.996 136.34 65.996 135.115C65.996 132.976 62.016 131.549 58.851 132.553C57.245 133.063 56.998 133.741 57.532 136.171L58.189 139.161L55.592 136.904C54.164 135.662 52.996 134.052 52.996 133.327C52.996 132.601 52.546 132.007 51.996 132.007C51.446 132.007 50.996 131.332 50.996 130.507C50.996 129.682 50.546 129.007 49.996 129.007C47.632 129.007 50.201 137.303 53.625 140.727C55.45 142.552 57.011 143.007 61.451 143.007C64.501 143.007 66.996 142.607 66.996 142.118C66.996 141.63 68.559 140.936 70.469 140.578C72.379 140.22 74.291 139.381 74.719 138.715C75.146 138.049 76.712 136.877 78.198 136.112C79.855 135.259 81.154 133.564 81.557 131.731C81.918 130.086 82.502 129.201 82.855 129.763C84.909 133.038 99.031 133.719 102.234 130.698C102.928 130.043 104.704 128.884 106.18 128.123C107.656 127.362 109.398 125.45 110.051 123.873C110.704 122.297 111.594 121.007 112.029 121.007C112.464 121.007 113.151 119.095 113.556 116.757C113.96 114.419 114.487 113.07 114.727 113.757C115.243 115.237 118.996 115.457 118.996 114.007C118.996 113.457 119.934 113.007 121.079 113.007C122.225 113.007 124.744 111.379 126.677 109.388L130.191 105.769L129.844 97.4721C129.544 90.3181 129.181 88.9011 127.212 87.1941C125.955 86.1041 124.996 84.8291 125.08 84.3601C125.164 83.8911 125.18 82.2701 125.114 80.7571C125.026 78.7131 124.482 78.0071 122.996 78.0071C121.848 78.0071 120.996 78.6741 120.996 79.5731C120.996 81.2461 122.834 85.1801 124.002 86.0071C124.39 86.2821 125.018 89.2951 125.396 92.7041L126.083 98.9001L122.29 99.5981C120.203 99.9821 118.157 100.793 117.743 101.401C117.301 102.051 117.057 101.681 117.151 100.507C117.528 95.8451 117.047 95.0071 113.996 95.0071C111.996 95.0071 110.996 95.5071 110.996 96.5071C110.996 97.3321 110.658 98.0071 110.246 98.0071C109.834 98.0071 109.496 102.806 109.496 108.673C109.496 116.316 109.142 119.457 108.246 119.756C107.558 119.986 106.996 120.746 106.996 121.445C106.996 123.707 100.82 127.911 96.559 128.55C94.278 128.892 90.855 128.725 88.954 128.18C86.418 127.452 86.096 127.163 87.746 127.097C88.983 127.048 89.996 126.606 89.996 126.115C89.996 125.625 91.121 124.941 92.496 124.596C94.867 124.001 96.118 121.007 93.996 121.007C93.446 121.007 92.996 121.38 92.996 121.835C92.996 122.881 83.131 125.208 81.906 124.451C80.219 123.409 80.979 121.007 82.996 121.007C84.096 121.007 84.996 120.557 84.996 120.007C84.996 118.556 81.24 118.777 80.742 120.257C80.197 121.877 76.996 119.423 76.996 117.385C76.996 116.627 76.535 116.007 75.971 116.007C75.408 116.007 74.519 114.882 73.996 113.507C73.473 112.132 72.584 111.007 72.021 111.007C71.457 111.007 70.996 110.336 70.996 109.515C70.996 108.695 70.096 107.462 68.996 106.775C67.896 106.088 66.99 105.072 66.983 104.516C66.967 103.36 63.551 98.7931 60.246 95.5121C59.009 94.2831 57.996 92.8761 57.996 92.3851C57.996 91.8951 56.421 90.0481 54.496 88.2811C52.571 86.5141 50.996 84.6851 50.996 84.2171C50.996 83.7481 48.971 81.2511 46.496 78.6681C44.021 76.0851 41.996 73.5551 41.996 73.0461C41.996 72.5371 41.129 71.5131 40.069 70.7711C39.009 70.0281 37.587 68.2031 36.908 66.7141C36.23 65.2251 35.332 64.0071 34.913 64.0071C33.342 64.0071 31.786 56.5891 32.189 51.0191C32.534 46.2471 33.125 44.7241 35.59 42.2591C37.231 40.6181 39.66 38.9311 40.988 38.5101C42.316 38.0881 44.018 37.1281 44.771 36.3751C45.523 35.6231 46.782 35.0071 47.567 35.0071C49.557 35.0071 49.349 33.4811 46.993 30.7921C43.567 26.8831 32.259 15.6311 29.119 13.0071C25.084 9.63514 25.265 8.28114 29.919 7.02814C32.076 6.44714 34.025 5.42114 34.249 4.74814C34.537 3.88314 35.166 4.03414 36.398 5.26614C38.053 6.92114 38.015 7.00714 35.649 7.00714C32.059 7.00714 29.996 7.99914 29.996 9.72514C29.996 10.8921 30.753 11.0881 33.37 10.5971C36.147 10.0761 37.165 10.4071 39.12 12.4681C40.427 13.8451 42.231 14.9801 43.129 14.9901C44.028 14.9991 45.014 15.9661 45.32 17.1391C45.73 18.7081 46.423 19.1291 47.941 18.7321C49.501 18.3241 50.147 18.7611 50.59 20.5271C50.913 21.8111 51.811 23.1061 52.586 23.4031C54.673 24.2041 54.296 26.6951 51.996 27.2971C50.799 27.6101 49.996 28.6611 49.996 29.9131C49.996 31.3401 50.633 32.0071 51.996 32.0071C53.096 32.0071 53.996 32.4571 53.996 33.0071C53.996 33.5571 54.671 34.0071 55.496 34.0071C56.321 34.0071 56.996 34.4571 56.996 35.0071C56.996 37.0991 63.252 35.2001 65.231 32.5071C65.663 31.9181 65.978 32.1241 65.996 33.0071C66.014 33.8911 66.328 34.0961 66.761 33.5051C67.165 32.9551 68.733 31.8661 70.246 31.0861C71.759 30.3071 72.996 29.2951 72.996 28.8381C72.996 27.5131 69.215 27.8781 68.655 29.2571C68.264 30.2211 67.927 30.1901 67.178 29.1191C66.378 27.9761 65.805 28.1071 63.913 29.8691C62.651 31.0451 61.029 32.0071 60.307 32.0071C59.586 32.0071 58.996 32.4571 58.996 33.0071C58.996 33.5571 58.546 34.0071 57.996 34.0071C57.446 34.0071 56.996 33.3701 56.996 32.5901C56.996 31.8111 56.434 30.9471 55.746 30.6691C54.957 30.3511 55.101 30.1361 56.139 30.0861C57.043 30.0431 58.038 29.3401 58.351 28.5251C58.664 27.7101 60.737 26.7521 62.958 26.3971C65.179 26.0421 66.996 25.3591 66.996 24.8791C66.996 24.3991 67.671 24.0071 68.496 24.0071C69.321 24.0071 69.996 24.4571 69.996 25.0071C69.996 25.5571 71.325 26.0071 72.949 26.0071C74.573 26.0071 77.144 26.5691 78.662 27.2571C82.434 28.9651 89.548 36.0211 90.49 38.9871C90.913 40.3221 91.834 41.9881 92.537 42.6911C93.239 43.3931 94.119 45.7761 94.493 47.9871C94.866 50.1981 95.524 52.0071 95.955 52.0071C96.386 52.0071 97.046 54.3691 97.423 57.2571C98.454 65.1601 99.07 67.0071 100.676 67.0071C101.873 67.0071 102.011 65.9591 101.435 61.2571C101.047 58.0951 100.34 55.3571 99.863 55.1741C99.386 54.9901 98.993 53.6401 98.99 52.1741C98.983 48.5721 97.1 42.0071 96.074 42.0071C95.619 42.0071 94.998 40.7651 94.694 39.2481C94.391 37.7301 92.985 35.1421 91.57 33.4981C90.156 31.8531 88.998 29.9451 88.997 29.2571C88.997 28.5701 88.434 28.0061 87.746 28.0061C87.059 28.0051 85.199 26.8891 83.614 25.5261C82.03 24.1631 79.217 22.7641 77.364 22.4161C75.512 22.0691 73.996 21.3841 73.996 20.8961C73.996 20.4071 72.205 20.0071 70.015 20.0071C66.681 20.0071 65.964 19.6411 65.603 17.7571C64.732 13.2051 65.374 10.9501 67.71 10.3641C68.967 10.0481 69.996 9.40714 69.996 8.93814C69.996 8.46914 72.696 7.52814 75.996 6.84614C79.296 6.16514 81.996 5.24714 81.996 4.80714C81.996 4.36714 84.021 4.00714 86.496 4.00714C88.971 4.00714 90.996 4.45714 90.996 5.00714C90.996 5.55714 92.151 6.00714 93.562 6.00714C98.993 6.00714 107.835 13.1531 110.078 19.3571C110.804 21.3651 111.757 23.0071 112.197 23.0071C112.636 23.0071 112.996 23.6821 112.996 24.5071C112.996 26.4971 112.017 26.4031 110.388 24.2571C109.158 22.6361 109.057 22.6731 109.028 24.7571C109.009 26.0761 108.375 27.0071 107.496 27.0071C106.671 27.0071 105.997 27.7951 105.998 28.7571C105.999 30.0421 106.929 30.5731 109.498 30.7561C112.504 30.9711 113.013 30.6891 113.114 28.7561C113.315 24.9421 114.742 31.8221 114.878 37.2571C114.943 39.8691 115.446 42.0071 115.996 42.0071C116.56 42.0071 116.996 44.8401 116.996 48.5071C116.996 52.1741 117.432 55.0071 117.996 55.0071C119.358 55.0071 119.286 36.3391 117.893 28.3391C117.287 24.8561 116.423 22.0071 115.973 22.0071C115.523 22.0071 114.867 20.6951 114.515 19.0921C114.162 17.4881 112.777 14.9011 111.436 13.3421C110.096 11.7831 108.998 9.94514 108.997 9.25714C108.997 8.57014 108.434 8.00614 107.746 8.00614C107.059 8.00514 105.199 6.88914 103.614 5.52614C102.03 4.16314 99.217 2.76414 97.364 2.41614C95.512 2.06914 93.996 1.38414 93.996 0.89614C93.996 0.40714 90.396 0.00713989 85.996 0.00713989C81.596 0.00713989 77.996 0.38514 77.996 0.84814C77.996 1.31014 75.521 2.24314 72.496 2.92014C69.471 3.59714 66.996 4.57914 66.996 5.10314C66.996 5.62814 65.871 6.48414 64.496 7.00714C63.121 7.53014 61.996 8.41914 61.996 8.98214C61.996 9.54614 61.432 10.0071 60.743 10.0071C60.053 10.0071 58.235 11.3361 56.702 12.9601C54.029 15.7931 51.009 16.1571 50.985 13.6501C50.979 13.0211 49.404 10.9811 47.485 9.11714C45.566 7.25214 43.996 5.33914 43.996 4.86714C43.996 4.39414 43.195 4.00714 42.217 4.00714C41.238 4.00714 39.789 3.10714 38.996 2.00714C37.507 -0.0588601 33.996 -0.76086 33.996 1.00714ZM82.663 6.67414C81.533 7.80314 81.925 10.0071 83.255 10.0071C83.948 10.0071 85.077 9.10714 85.764 8.00714C86.843 6.27914 86.763 6.00714 85.171 6.00714C84.158 6.00714 83.029 6.30714 82.663 6.67414ZM44.928 10.2761C46.248 12.3961 46.222 12.4321 44.407 11.0071C43.356 10.1821 42.165 9.05714 41.761 8.50714C41.306 7.88814 41.021 7.98314 41.011 8.75714C41.003 9.44514 40.321 10.0071 39.496 10.0071C37.412 10.0071 37.61 8.24014 39.746 7.76514C42.248 7.20914 43.351 7.74414 44.928 10.2761ZM89.246 7.71314C88.009 7.95114 86.996 8.81814 86.996 9.64014C86.996 11.8811 93.376 11.0541 93.811 8.75714C94.143 7.00614 93.581 6.87814 89.246 7.71314ZM94.996 11.0071C94.996 11.5571 95.644 12.0071 96.437 12.0071C97.23 12.0071 98.156 11.5571 98.496 11.0071C98.836 10.4571 98.187 10.0071 97.055 10.0071C95.923 10.0071 94.996 10.4571 94.996 11.0071ZM66.996 14.5071C66.996 16.9511 67.448 18.0071 68.496 18.0071C69.544 18.0071 69.996 16.9511 69.996 14.5071C69.996 12.0631 69.544 11.0071 68.496 11.0071C67.448 11.0071 66.996 12.0631 66.996 14.5071ZM70.996 13.5071C70.996 15.0631 71.563 16.0071 72.496 16.0071C73.429 16.0071 73.996 15.0631 73.996 13.5071C73.996 11.9511 73.429 11.0071 72.496 11.0071C71.563 11.0071 70.996 11.9511 70.996 13.5071ZM74.996 13.5071C74.996 14.3321 75.671 15.0071 76.496 15.0071C77.321 15.0071 77.996 14.3321 77.996 13.5071C77.996 12.6821 77.321 12.0071 76.496 12.0071C75.671 12.0071 74.996 12.6821 74.996 13.5071ZM98.996 14.0071C98.996 15.9561 100.057 16.6131 101.26 15.4091C102.062 14.6081 101.013 12.0071 99.889 12.0071C99.398 12.0071 98.996 12.9071 98.996 14.0071ZM48.522 15.8141C48.215 16.1221 47.408 15.8151 46.729 15.1311C45.749 14.1431 45.864 14.0291 47.289 14.5711C48.275 14.9471 48.83 15.5061 48.522 15.8141ZM102.996 16.5071C102.996 17.3321 103.671 18.0071 104.496 18.0071C105.321 18.0071 105.996 17.3321 105.996 16.5071C105.996 15.6821 105.321 15.0071 104.496 15.0071C103.671 15.0071 102.996 15.6821 102.996 16.5071ZM64.996 21.1141C64.996 21.6051 64.321 22.0071 63.496 22.0071C62.671 22.0071 61.996 21.3461 61.996 20.5381C61.996 19.6441 62.582 19.2951 63.496 19.6451C64.321 19.9621 64.996 20.6231 64.996 21.1141ZM57.338 21.4561C57.71 22.4251 57.414 22.7211 56.445 22.3491C55.648 22.0431 54.996 21.3911 54.996 20.9001C54.996 19.4621 56.731 19.8741 57.338 21.4561ZM98.996 23.0071C98.996 23.5571 99.671 24.0071 100.496 24.0071C101.321 24.0071 101.996 23.5571 101.996 23.0071C101.996 22.4571 101.321 22.0071 100.496 22.0071C99.671 22.0071 98.996 22.4571 98.996 23.0071ZM86.996 24.4341C86.996 25.3611 87.851 26.0071 89.079 26.0071C91.516 26.0071 91.172 23.6701 88.663 23.1841C87.676 22.9921 86.996 23.5021 86.996 24.4341ZM71.746 31.0871C70.783 31.6481 69.996 32.7591 69.996 33.5571C69.996 35.4691 72.897 35.4291 73.634 33.5071C73.951 32.6821 74.81 32.0071 75.544 32.0071C76.278 32.0071 77.156 31.5571 77.496 31.0071C78.301 29.7051 74.017 29.7641 71.746 31.0871ZM31.996 32.7791C31.996 33.2041 28.972 34.1251 25.276 34.8261C21.58 35.5271 18.318 36.4621 18.026 36.9041C17.735 37.3461 16.399 38.2861 15.057 38.9931C12.087 40.5601 4.00602 48.1631 4.00002 49.3971C3.99802 49.8861 3.26702 50.8201 2.37502 51.4721C0.479015 52.8581 -0.650985 64.2101 0.406015 71.2561C1.21502 76.6531 1.80302 77.4531 14.996 91.1141C28.64 105.242 31.996 108.987 31.996 110.087C31.996 110.584 32.896 111.552 33.996 112.239C35.096 112.926 35.997 113.942 35.997 114.498C35.998 115.412 38.549 118.914 42.25 123.083C43.019 123.95 43.938 125.413 44.291 126.333C45.225 128.767 48.996 128.506 48.996 126.007C48.996 124.907 48.558 124.007 48.022 124.007C47.486 124.007 46.302 122.567 45.392 120.806C44.482 119.045 43.233 117.032 42.616 116.331C42 115.63 40.596 113.867 39.496 112.413C38.396 110.959 36.708 108.923 35.746 107.888C34.784 106.854 33.996 105.713 33.996 105.353C33.996 104.993 28.394 99.1211 21.548 92.3051C14.702 85.4881 8.82102 79.0321 8.48102 77.9591C8.14002 76.8851 7.46302 76.0071 6.97602 76.0071C5.73902 76.0071 4.00702 69.2991 4.00702 64.5071C4.00702 59.8661 5.64702 53.3661 7.32902 51.3381C11.161 46.7191 14.721 43.2761 16.246 42.7141C17.208 42.3601 17.996 41.6381 17.996 41.1101C17.996 40.5821 20.471 39.5971 23.496 38.9201C26.521 38.2431 28.996 37.3381 28.996 36.9081C28.996 36.4791 30.68 35.9881 32.738 35.8171C35.353 35.6001 36.579 34.9801 36.811 33.7571C37.057 32.4581 36.48 32.0071 34.569 32.0071C33.154 32.0071 31.996 32.3541 31.996 32.7791ZM76.996 33.0071C76.996 33.5571 76.321 34.0071 75.496 34.0071C74.671 34.0071 73.996 34.5091 73.996 35.1241C73.996 35.7751 75.037 36.0411 76.496 35.7621C78.172 35.4421 78.996 35.7331 78.996 36.6461C78.996 37.3941 79.671 38.0071 80.496 38.0071C81.321 38.0071 81.996 38.4571 81.996 39.0071C81.996 39.5571 82.896 40.0071 83.996 40.0071C85.096 40.0071 85.996 39.5571 85.996 39.0071C85.996 38.4571 85.321 38.0071 84.496 38.0071C82.68 38.0071 82.505 36.3721 84.246 35.6691C84.934 35.3921 84.483 35.1291 83.246 35.0861C81.948 35.0401 80.996 34.3721 80.996 33.5071C80.996 32.6741 80.107 32.0071 78.996 32.0071C77.896 32.0071 76.996 32.4571 76.996 33.0071ZM109.996 33.5071C109.996 34.3321 110.671 35.0071 111.496 35.0071C112.321 35.0071 112.996 34.3321 112.996 33.5071C112.996 32.6821 112.321 32.0071 111.496 32.0071C110.671 32.0071 109.996 32.6821 109.996 33.5071ZM48.996 37.5071C48.996 38.5551 47.94 39.0071 45.496 39.0071C41.573 39.0071 40.561 41.3981 44.092 42.3221C46.798 43.0291 48.996 42.1681 48.996 40.4001C48.996 39.6341 49.446 39.0071 49.996 39.0071C50.546 39.0071 50.996 38.3321 50.996 37.5071C50.996 36.6821 50.546 36.0071 49.996 36.0071C49.446 36.0071 48.996 36.6821 48.996 37.5071ZM101.996 37.5071C101.996 38.3321 102.671 39.0071 103.496 39.0071C104.321 39.0071 104.996 38.3321 104.996 37.5071C104.996 36.6821 104.321 36.0071 103.496 36.0071C102.671 36.0071 101.996 36.6821 101.996 37.5071ZM110.996 40.5071C110.996 41.3321 111.671 42.0071 112.496 42.0071C113.321 42.0071 113.996 41.3321 113.996 40.5071C113.996 39.6821 113.321 39.0071 112.496 39.0071C111.671 39.0071 110.996 39.6821 110.996 40.5071ZM21.996 43.0071C21.996 43.5571 22.671 44.0071 23.496 44.0071C24.321 44.0071 24.996 43.5571 24.996 43.0071C24.996 42.4571 24.321 42.0071 23.496 42.0071C22.671 42.0071 21.996 42.4571 21.996 43.0071ZM84.996 44.5071C84.996 45.4401 85.94 46.0071 87.496 46.0071C89.052 46.0071 89.996 45.4401 89.996 44.5071C89.996 43.5741 89.052 43.0071 87.496 43.0071C85.94 43.0071 84.996 43.5741 84.996 44.5071ZM17.996 45.5071C17.996 46.3401 17.107 47.0071 15.996 47.0071C14.896 47.0071 13.996 47.4891 13.996 48.0781C13.996 48.6681 13.353 49.7931 12.567 50.5781C11.782 51.3641 10.657 52.0071 10.067 52.0071C9.47801 52.0071 8.99602 52.6821 8.99602 53.5071C8.99602 54.3321 8.28902 55.0071 7.42502 55.0071C6.06402 55.0071 6.08802 55.2421 7.60302 56.7571C9.22202 58.3761 9.22802 58.5311 7.67502 58.8301C5.89802 59.1731 5.29202 62.0071 6.99602 62.0071C7.54602 62.0071 7.99602 61.5571 7.99602 61.0071C7.99602 60.4571 8.87801 60.0071 9.95601 60.0071C11.376 60.0071 12.246 58.9051 13.114 56.0071C14.342 51.9081 15.374 51.0501 16.424 53.2571C16.751 53.9451 16.83 53.4941 16.601 52.2571C16.371 51.0201 16.591 50.0071 17.09 50.0071C17.588 50.0071 17.996 49.3321 17.996 48.5071C17.996 47.6821 18.671 47.0071 19.496 47.0071C20.321 47.0071 20.996 46.3321 20.996 45.5071C20.996 44.6821 20.321 44.0071 19.496 44.0071C18.671 44.0071 17.996 44.6821 17.996 45.5071ZM37.634 45.5071C37.318 46.3321 37.302 47.6411 37.6 48.4171C37.925 49.2641 37.314 50.0891 36.068 50.4841C33.692 51.2381 33.242 54.0071 35.496 54.0071C36.321 54.0071 36.996 53.5621 36.996 53.0191C36.996 52.4751 38.796 51.7431 40.996 51.3911C45.348 50.6951 46.429 48.4221 42.746 47.7131L40.496 47.2791L42.746 47.1431C46.557 46.9131 45.498 44.0071 41.603 44.0071C39.509 44.0071 37.99 44.5811 37.634 45.5071ZM49.996 48.5071C49.996 49.3321 50.671 50.0071 51.496 50.0071C52.321 50.0071 52.996 49.3321 52.996 48.5071C52.996 47.6821 52.321 47.0071 51.496 47.0071C50.671 47.0071 49.996 47.6821 49.996 48.5071ZM111.996 51.0071C113.935 52.2601 114.996 52.2601 114.996 51.0071C114.996 50.4571 113.983 50.0141 112.746 50.0221C110.927 50.0351 110.783 50.2231 111.996 51.0071ZM65.442 52.0941C65.073 52.6921 65.271 53.6821 65.883 54.2941C66.7 55.1111 66.996 54.8221 66.996 53.2071C66.996 50.7921 66.477 50.4201 65.442 52.0941ZM78.996 52.5071C78.996 53.3321 79.671 54.0071 80.496 54.0071C81.321 54.0071 81.996 53.3321 81.996 52.5071C81.996 51.6821 81.321 51.0071 80.496 51.0071C79.671 51.0071 78.996 51.6821 78.996 52.5071ZM21.996 53.5071C21.996 54.3401 22.885 55.0071 23.996 55.0071C25.107 55.0071 25.996 54.3401 25.996 53.5071C25.996 52.6741 25.107 52.0071 23.996 52.0071C22.885 52.0071 21.996 52.6741 21.996 53.5071ZM39.996 52.9281C39.996 53.4341 38.646 54.1451 36.996 54.5071C34.013 55.1621 32.717 58.0071 35.402 58.0071C36.235 58.0071 36.638 58.7211 36.389 59.7571C35.741 62.4641 37.439 64.3181 39.864 63.5491C41.62 62.9921 41.93 62.2151 41.676 59.0101C41.435 55.9601 41.754 55.0421 43.183 54.6681C45.881 53.9631 45.376 52.0071 42.496 52.0071C41.121 52.0071 39.996 52.4211 39.996 52.9281ZM43.996 56.5071C43.996 57.3321 44.446 58.0071 44.996 58.0071C45.546 58.0071 45.996 57.3321 45.996 56.5071C45.996 55.6821 45.546 55.0071 44.996 55.0071C44.446 55.0071 43.996 55.6821 43.996 56.5071ZM21.996 57.5071C21.996 58.3321 22.629 59.0071 23.402 59.0071C24.3 59.0071 24.626 59.7061 24.303 60.9391C23.895 62.5011 24.201 62.7661 25.897 62.3231C27.985 61.7771 28.903 59.0071 26.996 59.0071C26.446 59.0071 25.996 58.3321 25.996 57.5071C25.996 56.6741 25.107 56.0071 23.996 56.0071C22.885 56.0071 21.996 56.6741 21.996 57.5071ZM39.996 57.0071C39.996 57.5571 39.546 58.0071 38.996 58.0071C38.446 58.0071 37.996 57.5571 37.996 57.0071C37.996 56.4571 38.446 56.0071 38.996 56.0071C39.546 56.0071 39.996 56.4571 39.996 57.0071ZM105.996 57.5071C105.996 58.3321 106.671 59.0071 107.496 59.0071C108.321 59.0071 108.996 58.3321 108.996 57.5071C108.996 56.6821 108.321 56.0071 107.496 56.0071C106.671 56.0071 105.996 56.6821 105.996 57.5071ZM39.996 61.0071C39.996 61.5571 39.546 62.0071 38.996 62.0071C38.446 62.0071 37.996 61.5571 37.996 61.0071C37.996 60.4571 38.446 60.0071 38.996 60.0071C39.546 60.0071 39.996 60.4571 39.996 61.0071ZM25.341 64.5501C25.015 65.3991 25.01 66.3541 25.329 66.6741C26.338 67.6831 28.996 66.1351 28.996 64.5381C28.996 62.5421 26.108 62.5521 25.341 64.5501ZM116.996 64.0641C116.996 67.1931 119.402 73.9491 120.692 74.4441C121.952 74.9271 122.073 74.1961 121.469 69.7621C120.816 64.9651 119.766 63.0641 117.746 63.0221C117.334 63.0141 116.996 63.4831 116.996 64.0641ZM7.20702 65.5451C6.49702 66.3491 6.33202 67.0071 6.84002 67.0071C7.34702 67.0071 7.99002 67.8781 8.26902 68.9421C8.63402 70.3401 9.36102 70.7241 10.885 70.3261C13.285 69.6981 13.78 67.0071 11.496 67.0071C10.671 67.0071 9.99602 66.3321 9.99602 65.5071C9.99602 63.6281 8.88402 63.6441 7.20702 65.5451ZM93.996 65.5071C93.996 66.3321 94.671 67.0071 95.496 67.0071C96.321 67.0071 96.996 66.3321 96.996 65.5071C96.996 64.6821 96.321 64.0071 95.496 64.0071C94.671 64.0071 93.996 64.6821 93.996 65.5071ZM39.996 68.5071C39.996 69.4401 40.94 70.0071 42.496 70.0071C44.052 70.0071 44.996 69.4401 44.996 68.5071C44.996 67.5741 44.052 67.0071 42.496 67.0071C40.94 67.0071 39.996 67.5741 39.996 68.5071ZM52.996 69.5071C52.996 70.3321 53.446 71.0071 53.996 71.0071C54.546 71.0071 54.996 70.3321 54.996 69.5071C54.996 68.6821 54.546 68.0071 53.996 68.0071C53.446 68.0071 52.996 68.6821 52.996 69.5071ZM44.367 71.4811C44.056 72.2921 44.52 73.6741 45.399 74.5531C46.277 75.4311 46.996 76.7931 46.996 77.5781C46.996 78.3641 47.896 79.0071 48.996 79.0071C50.297 79.0071 50.996 78.3401 50.996 77.1011C50.996 75.6671 50.438 75.2981 48.746 75.6121C47.509 75.8411 47.059 75.7621 47.746 75.4351C49.393 74.6521 49.328 73.1961 47.567 71.4361C45.758 69.6271 45.075 69.6361 44.367 71.4811ZM94.996 71.0071C94.996 71.5571 95.701 72.0071 96.563 72.0071C97.676 72.0071 97.946 72.5881 97.496 74.0071C97.128 75.1671 97.316 76.0071 97.944 76.0071C98.54 76.0071 98.925 74.6571 98.799 73.0071C98.637 70.8781 98.052 70.0071 96.783 70.0071C95.8 70.0071 94.996 70.4571 94.996 71.0071ZM10.746 71.6961C8.96102 72.1631 8.24601 75.0071 9.91401 75.0071C11.966 75.0071 13.996 73.7101 13.996 72.4001C13.996 70.9681 13.742 70.9131 10.746 71.6961ZM112.996 72.5071C112.996 73.3321 113.446 74.0071 113.996 74.0071C114.546 74.0071 114.996 73.3321 114.996 72.5071C114.996 71.6821 114.546 71.0071 113.996 71.0071C113.446 71.0071 112.996 71.6821 112.996 72.5071ZM73.996 75.0071C73.996 75.5571 74.671 76.0071 75.496 76.0071C76.321 76.0071 76.996 75.5571 76.996 75.0071C76.996 74.4571 76.321 74.0071 75.496 74.0071C74.671 74.0071 73.996 74.4571 73.996 75.0071ZM11.996 76.5071C11.996 77.3401 12.885 78.0071 13.996 78.0071C15.107 78.0071 15.996 77.3401 15.996 76.5071C15.996 75.6741 15.107 75.0071 13.996 75.0071C12.885 75.0071 11.996 75.6741 11.996 76.5071ZM28.996 81.5071C28.996 82.3321 29.671 83.0071 30.496 83.0071C31.321 83.0071 31.996 82.3321 31.996 81.5071C31.996 80.6821 31.321 80.0071 30.496 80.0071C29.671 80.0071 28.996 80.6821 28.996 81.5071ZM102.378 85.5981C102.739 88.6731 103.701 91.8551 104.515 92.6691C105.823 93.9771 105.996 93.6881 105.996 90.2031C105.996 84.0051 104.913 80.0071 103.233 80.0071C101.985 80.0071 101.836 80.9841 102.378 85.5981ZM109.996 81.5071C109.996 82.3321 110.671 83.0071 111.496 83.0071C112.321 83.0071 112.996 82.3321 112.996 81.5071C112.996 80.6821 112.321 80.0071 111.496 80.0071C110.671 80.0071 109.996 80.6821 109.996 81.5071ZM17.996 83.0071C17.996 83.5571 18.644 84.0071 19.437 84.0071C20.23 84.0071 21.156 83.5571 21.496 83.0071C21.836 82.4571 21.187 82.0071 20.055 82.0071C18.923 82.0071 17.996 82.4571 17.996 83.0071ZM97.996 85.5071C97.996 87.0631 98.563 88.0071 99.496 88.0071C100.321 88.0071 100.996 88.4571 100.996 89.0071C100.996 89.5571 100.321 90.0071 99.496 90.0071C98.671 90.0071 97.996 90.4571 97.996 91.0071C97.996 92.2211 100.67 92.3431 101.399 91.1631C101.686 90.6991 101.654 88.6741 101.328 86.6631C100.65 82.4891 97.996 81.5681 97.996 85.5071ZM20.634 85.5071C19.778 87.7391 20.968 90.0071 22.996 90.0071C23.978 90.0071 25.041 89.3321 25.358 88.5071C26.214 86.2751 25.024 84.0071 22.996 84.0071C22.014 84.0071 20.951 84.6821 20.634 85.5071ZM57.996 88.5071C57.996 89.3321 58.671 90.0071 59.496 90.0071C60.321 90.0071 60.996 89.3321 60.996 88.5071C60.996 87.6821 60.321 87.0071 59.496 87.0071C58.671 87.0071 57.996 87.6821 57.996 88.5071ZM108.996 88.5071C108.996 89.3321 109.446 90.0071 109.996 90.0071C110.546 90.0071 110.996 89.3321 110.996 88.5071C110.996 87.6821 110.546 87.0071 109.996 87.0071C109.446 87.0071 108.996 87.6821 108.996 88.5071ZM25.579 89.6501C25.233 90.5541 25.165 91.5091 25.429 91.7741C26.359 92.7041 28.996 91.0511 28.996 89.5381C28.996 87.4911 26.375 87.5771 25.579 89.6501ZM118.996 89.5071C118.996 90.3321 119.671 91.0071 120.496 91.0071C121.321 91.0071 121.996 90.3321 121.996 89.5071C121.996 88.6821 121.321 88.0071 120.496 88.0071C119.671 88.0071 118.996 88.6821 118.996 89.5071ZM60.996 92.5071C60.996 93.3401 61.885 94.0071 62.996 94.0071C64.107 94.0071 64.996 93.3401 64.996 92.5071C64.996 91.6741 64.107 91.0071 62.996 91.0071C61.885 91.0071 60.996 91.6741 60.996 92.5071ZM109.496 92.0071C109.156 92.5571 109.144 93.4371 109.469 93.9631C110.292 95.2941 112.996 94.0961 112.996 92.4001C112.996 90.8011 110.42 90.5121 109.496 92.0071ZM29.246 93.5031C27.514 95.4701 27.675 96.0071 29.996 96.0071C31.297 96.0071 31.996 96.6741 31.996 97.9131C31.996 99.3271 32.513 99.6851 33.996 99.2971C35.096 99.0091 35.996 98.1511 35.996 97.3901C35.996 96.6301 35.096 96.0071 33.996 96.0071C32.663 96.0071 31.996 95.3401 31.996 94.0071C31.996 91.6791 31.011 91.4981 29.246 93.5031ZM65.663 95.6741C64.207 97.1291 65.059 98.8031 66.996 98.2971C68.096 98.0091 68.996 97.1511 68.996 96.3901C68.996 94.9611 66.839 94.4981 65.663 95.6741ZM98.663 95.6741C97.036 97.3001 98.053 99.2261 100.246 98.6731C102.293 98.1581 102.338 98.2251 100.746 99.4171C98.703 100.947 98.432 103.007 100.274 103.007C102.123 103.007 105.61 98.7121 104.155 98.2271C103.518 98.0141 102.996 97.2031 102.996 96.4241C102.996 94.9881 99.886 94.4501 98.663 95.6741ZM121.996 96.5071C121.996 97.3321 122.671 98.0071 123.496 98.0071C124.321 98.0071 124.996 97.3321 124.996 96.5071C124.996 95.6821 124.321 95.0071 123.496 95.0071C122.671 95.0071 121.996 95.6821 121.996 96.5071ZM35.746 99.7641C33.594 100.243 33.408 103.007 35.527 103.007C36.37 103.007 37.325 102.313 37.651 101.464C38.373 99.5811 38.013 99.2601 35.746 99.7641ZM66.996 101.115C66.996 102.916 67.397 103.123 69.744 102.534C73.305 101.64 73.767 101.106 71.967 99.9681C69.354 98.3151 66.996 98.8601 66.996 101.115ZM125.922 104.313C125.361 106.345 124.286 108.007 123.532 108.007C122.779 108.007 122.009 108.468 121.821 109.031C121.634 109.594 119.887 110.313 117.94 110.629C114.554 111.178 114.408 111.079 114.569 108.355C114.662 106.789 114.796 105.169 114.867 104.757C115.063 103.618 120.996 103.86 120.996 105.007C120.996 105.557 120.096 106.007 118.996 106.007C117.896 106.007 116.996 106.457 116.996 107.007C116.996 108.396 121.159 108.203 123.08 106.725C123.952 106.055 124.986 104.216 125.379 102.639C125.772 101.062 126.284 99.9621 126.518 100.195C126.751 100.429 126.483 102.282 125.922 104.313ZM69.996 104.84C69.996 106.341 70.49 106.691 72.037 106.286C74.38 105.673 74.138 103.664 71.663 103.184C70.559 102.97 69.996 103.529 69.996 104.84ZM101.358 104.507C101.041 105.332 100.155 106.007 99.389 106.007C98.607 106.007 98.003 106.993 98.011 108.257C98.02 109.494 98.357 110.056 98.761 109.505C99.165 108.955 100.733 107.866 102.246 107.086C103.759 106.307 104.996 105.07 104.996 104.338C104.996 102.515 102.07 102.651 101.358 104.507ZM41.634 109.507C41.243 110.527 41.688 111.007 43.027 111.007C44.111 111.007 44.996 110.332 44.996 109.507C44.996 108.682 44.369 108.007 43.603 108.007C42.837 108.007 41.951 108.682 41.634 109.507ZM74.671 109.411C73.853 111.544 75.054 115.007 76.613 115.007C77.373 115.007 78.032 116.019 78.075 117.257C78.118 118.495 78.381 118.945 78.658 118.257C78.936 117.57 79.774 117.007 80.52 117.007C82.428 117.007 83.237 115.342 82.483 112.967C81.948 111.282 81.23 111.032 78.169 111.465L74.496 111.984L77.746 110.967C79.533 110.408 80.996 109.513 80.996 108.978C80.996 107.453 75.273 107.844 74.671 109.411ZM102.246 111.354C98.673 112.526 97.824 115.007 100.996 115.007C102.096 115.007 102.996 114.609 102.996 114.124C102.996 113.638 103.896 113.005 104.996 112.717C106.096 112.43 106.996 111.702 106.996 111.101C106.996 109.864 106.75 109.877 102.246 111.354ZM103.746 116.116C101.274 118.788 100.232 121.007 101.449 121.007C103.119 121.007 106.996 118.449 106.996 117.346C106.996 116.61 107.446 116.007 107.996 116.007C108.546 116.007 108.996 115.332 108.996 114.507C108.996 112.171 106.763 112.856 103.746 116.116ZM85.341 116.55C85.015 117.399 85.091 118.411 85.509 118.8C85.928 119.189 86.471 118.945 86.716 118.257C86.962 117.57 87.8 117.007 88.579 117.007C89.358 117.007 89.996 116.557 89.996 116.007C89.996 114.394 85.989 114.861 85.341 116.55ZM48.996 118.507C48.996 119.332 49.446 120.007 49.996 120.007C50.546 120.007 50.996 119.332 50.996 118.507C50.996 117.682 50.546 117.007 49.996 117.007C49.446 117.007 48.996 117.682 48.996 118.507ZM87.746 119.696C85.866 120.188 85.288 123.007 87.067 123.007C88.192 123.007 90.996 120.56 90.996 119.578C90.996 118.964 90.475 118.983 87.746 119.696ZM50.996 123.007C50.996 124.118 51.663 125.007 52.496 125.007C53.329 125.007 53.996 124.118 53.996 123.007C53.996 121.896 53.329 121.007 52.496 121.007C51.663 121.007 50.996 121.896 50.996 123.007ZM55.246 128.713C52.138 129.311 52.342 132.007 55.496 132.007C57.329 132.007 57.996 131.474 57.996 130.007C57.996 128.907 57.884 128.068 57.746 128.143C57.608 128.218 56.483 128.474 55.246 128.713Z" fill="#F57E55"/>
</svg>
