<svg width="141" height="145" viewBox="0 0 141 145" fill="none" xmlns="http://www.w3.org/2000/svg">
<path fill-rule="evenodd" clip-rule="evenodd" d="M0 0.56797C0 1.85097 10.28 11.055 12.696 11.936C14.431 12.568 14.833 12.988 13.75 13.037C11.303 13.147 11.499 13.619 15.761 17.867C17.829 19.929 20.155 22.853 20.93 24.366C21.704 25.879 22.663 27.116 23.061 27.116C23.458 27.116 24.066 28.241 24.411 29.616C24.756 30.991 25.48 32.116 26.019 32.116C26.606 32.116 27 36.938 27 44.116C27 50.716 26.616 56.116 26.147 56.116C25.678 56.116 24.984 60.954 24.604 66.866C24.224 72.778 23.483 77.766 22.957 77.949C21.763 78.365 21.677 97.116 22.868 97.116C23.346 97.116 23.987 98.981 24.293 101.26C24.598 103.539 25.272 105.677 25.789 106.01C26.307 106.343 27.075 107.72 27.497 109.069C27.919 110.419 28.767 112.091 29.382 112.785C32.091 115.843 33 117.075 33 117.691C33 118.054 34.8 120.151 37 122.351C39.2 124.551 41 126.973 41 127.734C41 128.494 41.401 129.116 41.892 129.116C42.382 129.116 43.063 130.232 43.406 131.597C44.167 134.629 50.058 140.687 53.2 141.668C54.465 142.062 55.817 142.881 56.204 143.485C57.234 145.095 74.209 144.986 74.749 143.366C74.979 142.678 76.222 142.116 77.512 142.116C78.802 142.116 80.473 141.5 81.225 140.748C81.978 139.995 83.585 139.065 84.797 138.681C86.008 138.296 87 137.562 87 137.049C87 136.536 87.606 136.116 88.347 136.116C90.117 136.116 97 129.402 97 127.675C97 126.935 97.675 126.071 98.5 125.754C99.325 125.438 100 124.683 100 124.076C100 123.469 100.675 122.298 101.5 121.473C102.325 120.648 103 119.105 103 118.045C103 116.747 103.693 116.116 105.117 116.116C106.741 116.116 107.112 115.651 106.71 114.116C106.038 111.544 106.335 111.595 109.595 114.616C112.627 117.427 115 117.866 115 115.616C115 114.791 114.65 114.116 114.223 114.116C113.001 114.116 107 108.347 107 107.172C107 105.663 108.755 105.867 109.7 107.485C110.14 108.238 111.625 109.196 113 109.613L115.5 110.372L112.75 107.792C111.238 106.373 110 104.965 110 104.664C110 103.539 112.199 104.172 113.777 105.75C115.029 107.002 115.512 107.081 115.843 106.087C116.081 105.374 115.538 104.252 114.638 103.593C111.598 101.37 112.928 100.448 118.75 100.741C121.912 100.9 123.713 100.791 122.75 100.5C121.787 100.208 121 99.582 121 99.109C121 98.636 119.762 98.061 118.25 97.832L115.5 97.416L118.25 97.266C119.762 97.183 121 96.666 121 96.116C121 94.669 124.74 94.885 125.338 96.366C125.639 97.113 125.874 96.911 125.921 95.866C125.964 94.903 126.675 94.116 127.5 94.116C128.325 94.116 129 93.441 129 92.616C129 91.683 128.056 91.116 126.5 91.116C124.689 91.116 124 90.579 124 89.168C124 86.995 127.558 82.814 130.25 81.823C131.213 81.469 132 80.49 132 79.647C132 78.805 132.441 78.116 132.981 78.116C133.52 78.116 134.236 77.024 134.571 75.688C134.906 74.353 135.815 73.017 136.59 72.72C137.366 72.422 138 71.302 138 70.231C138 69.159 138.562 68.095 139.25 67.866C140.895 67.318 141.04 42.394 139.404 41.33C138.801 40.937 137.995 39.34 137.613 37.78C136.799 34.454 136.174 33.624 129.333 26.783C122.572 20.022 121.653 19.318 118.586 18.548C117.164 18.191 116 17.513 116 17.042C116 16.571 113.75 15.886 111 15.522C108.25 15.157 106 14.466 106 13.987C106 13.508 100.375 13.116 93.5 13.116C86.377 13.116 81 13.52 81 14.055C81 14.571 78.975 15.297 76.5 15.668C74.025 16.039 72 16.692 72 17.118C72 17.545 70.425 18.189 68.5 18.55C66.575 18.911 65 19.586 65 20.05C65 20.514 63.458 21.183 61.573 21.536C59.688 21.89 57.983 22.666 57.785 23.261C57.571 23.903 53.576 24.476 47.962 24.67C42.758 24.85 39.513 24.768 40.75 24.487C43.538 23.855 43.659 22.46 41 21.616C39.9 21.267 39 20.61 39 20.157C39 19.704 37.785 19.028 36.301 18.655C34.816 18.283 32.604 16.902 31.386 15.587C30.167 14.273 28.002 12.904 26.574 12.545C24.36 11.99 24.067 12.168 24.583 13.755C24.951 14.884 24.857 15.168 24.344 14.477C23.88 13.85 21.587 12.766 19.25 12.068C16.913 11.37 15 10.469 15 10.066C15 9.66297 13.863 9.04797 12.474 8.69897C11.085 8.34997 8.212 6.27597 6.091 4.08997C2.76 0.65797 0 -0.93803 0 0.56797ZM106.25 18.553C109.412 18.942 112 19.627 112 20.077C112 20.526 113.575 21.189 115.5 21.55C117.425 21.911 119 22.628 119 23.142C119 23.657 120.067 24.346 121.372 24.673C122.676 25.001 124.301 26.31 124.982 27.582C125.663 28.855 127.308 30.478 128.637 31.189C129.966 31.901 131.316 33.525 131.635 34.799C131.955 36.074 132.598 37.116 133.063 37.116C133.529 37.116 134.205 38.691 134.566 40.616C134.927 42.541 135.623 44.116 136.111 44.116C136.6 44.116 137 46.816 137 50.116C137 53.449 136.556 56.116 136 56.116C135.45 56.116 135 55.441 135 54.616C135 53.791 134.325 53.116 133.5 53.116C132.333 53.116 131.96 54.613 131.82 59.866C131.67 65.469 131.576 65.809 131.265 61.866C131.059 59.254 130.507 57.116 130.039 57.116C129.571 57.116 128.878 54.866 128.5 52.116C128.122 49.366 127.405 47.116 126.906 47.116C126.408 47.116 126 46.526 126 45.805C126 45.083 125.1 43.527 124 42.346C122.9 41.166 122 39.889 122 39.509C122 38.156 115.445 32.481 112.25 31.066C110.462 30.275 109 29.339 109 28.985C109 28.632 106.975 28.039 104.5 27.668C102.025 27.297 100 26.571 100 26.055C100 25.538 99.325 25.116 98.5 25.116C97.675 25.116 97 24.441 97 23.616C97 22.439 95.62 22.116 90.583 22.116C87.054 22.116 84.017 22.499 83.833 22.966C83.65 23.434 81.6 24.064 79.277 24.367C75.656 24.84 75.254 24.719 76.456 23.517C77.227 22.747 78.757 22.116 79.857 22.116C80.957 22.116 82.532 21.441 83.357 20.616C84.359 19.614 86.861 19.116 90.889 19.116C94.752 19.116 97.385 18.616 98.211 17.727C98.92 16.963 99.725 16.677 100 17.091C100.275 17.506 103.088 18.164 106.25 18.553ZM24.75 21.549C25.987 21.935 27 22.9 27 23.693C27 24.486 27.9 25.906 29 26.848C30.1 27.79 31 29.135 31 29.838C31 30.541 31.464 31.116 32.031 31.116C32.599 31.116 33.357 31.884 33.717 32.822C34.551 34.994 37.207 38.116 38.222 38.116C39.629 38.116 39.033 35.343 37.5 34.754C36.675 34.438 36 33.527 36 32.731C36 31.934 35.438 31.024 34.75 30.709C33.353 30.067 37.703 31.09 39.914 31.923C40.868 32.282 41.071 32.04 40.539 31.179C39.944 30.216 40.457 30.037 42.625 30.451C44.206 30.753 49.888 31.293 55.25 31.651C60.612 32.009 65 32.683 65 33.148C65 33.613 67.025 34.297 69.5 34.668C71.975 35.039 74 35.706 74 36.15C74 36.594 75.312 37.245 76.916 37.598C78.521 37.95 80.081 38.886 80.385 39.677C80.689 40.468 81.392 41.116 81.948 41.116C82.503 41.116 85.33 43.584 88.229 46.6C95.497 54.162 95.833 54.603 96.568 57.53C96.925 58.952 97.613 60.116 98.097 60.116C98.58 60.116 99.264 61.916 99.616 64.116C99.968 66.316 100.597 68.116 101.014 68.116C101.738 68.116 102.074 69.941 103.541 81.866C103.977 85.404 104.646 87.116 105.594 87.116C106.367 87.116 107 87.791 107 88.616C107 89.441 106.149 90.116 105.108 90.116C103.925 90.116 102.982 91.052 102.589 92.616C102.138 94.413 101.288 95.116 99.564 95.116C98.246 95.116 97.017 95.511 96.833 95.994C96.65 96.477 95.15 97.083 93.5 97.339C91.85 97.596 91.063 97.618 91.75 97.388C92.438 97.158 93 96.552 93 96.043C93 95.533 93.75 95.116 94.667 95.116C95.583 95.116 96.054 94.837 95.713 94.496C94.46 93.242 88 95.177 88 96.806C88 98.182 86.935 98.324 80.35 97.826C76.142 97.508 72.429 96.829 72.1 96.317C71.77 95.804 70.375 95.044 69 94.627C67.625 94.209 65.773 93.136 64.884 92.242C63.995 91.348 62.308 89.954 61.134 89.145C59.96 88.336 59 87.199 59 86.618C59 86.037 57.71 84.429 56.133 83.046C54.556 81.662 52.951 79.537 52.566 78.323C52.18 77.109 51.494 76.116 51.041 76.116C50.588 76.116 49.934 74.991 49.589 73.616C49.244 72.241 48.556 71.116 48.06 71.116C47.565 71.116 46.862 69.766 46.5 68.116C46.138 66.466 45.478 65.116 45.034 65.116C44.59 65.116 43.923 63.091 43.552 60.616C43.181 58.141 42.5 56.116 42.038 56.116C41.577 56.116 40.66 53.866 40 51.116C39.34 48.366 38.431 46.116 37.98 46.116C37.528 46.116 36.862 44.766 36.5 43.116C36.138 41.466 35.463 40.116 35 40.116C34.537 40.116 33.862 38.766 33.5 37.116C33.138 35.466 32.427 34.116 31.921 34.116C31.414 34.116 31 33.427 31 32.585C31 31.742 30.325 30.794 29.5 30.478C28.675 30.161 28 29.297 28 28.557C28 27.817 26.425 25.683 24.5 23.813C22.575 21.944 21.007 20.009 21.015 19.515C21.024 19.021 21.361 19.118 21.765 19.731C22.169 20.345 23.513 21.162 24.75 21.549ZM77 20.097C77 20.636 75.767 21.387 74.26 21.766C72.753 22.144 70.921 23.052 70.188 23.785C68.395 25.578 64.9 25.539 65.593 23.734C65.885 22.974 67.896 22.068 70.062 21.722C72.228 21.376 74 20.648 74 20.104C74 19.561 74.675 19.116 75.5 19.116C76.325 19.116 77 19.557 77 20.097ZM36.75 22.866C37.363 24.705 34.32 24.392 33.61 22.543C33.19 21.447 33.511 21.068 34.671 21.293C35.586 21.471 36.522 22.179 36.75 22.866ZM96 29.1C96.275 29.499 98.862 30.386 101.75 31.071C104.638 31.755 107 32.69 107 33.148C107 33.606 107.93 34.276 109.066 34.637C111.708 35.476 122 45.891 122 47.726C122 48.491 122.397 49.116 122.881 49.116C124.274 49.116 126 57.419 126 64.116C126 70.813 124.274 79.116 122.881 79.116C122.397 79.116 122 79.755 122 80.537C122 82.655 113.139 91.116 110.921 91.116C109.864 91.116 109 91.566 109 92.116C109 92.666 108.325 93.116 107.5 93.116C106.675 93.116 106 92.666 106 92.116C106 91.566 106.675 91.116 107.5 91.116C108.325 91.116 109 90.441 109 89.616C109 88.791 109.626 88.116 110.392 88.116C111.157 88.116 112.093 86.883 112.471 85.376C112.849 83.869 113.607 82.359 114.155 82.02C114.703 81.681 115.416 79.434 115.739 77.026C116.27 73.064 116.178 72.795 114.771 74.202C113.916 75.058 112.994 76.626 112.724 77.687C112.453 78.748 112.18 76.353 112.116 72.366C112.021 66.459 111.706 65.116 110.412 65.116C109.108 65.116 108.948 65.846 109.516 69.209C110.332 74.041 109.259 84.116 107.928 84.116C106.524 84.116 106.816 78.357 108.25 77.775C109.142 77.414 109.184 77.031 108.397 76.442C107.791 75.988 107.04 72.74 106.729 69.226C106.418 65.711 105.751 62.561 105.246 62.226C104.741 61.89 103.831 60.163 103.223 58.388C102.095 55.088 100.842 53.242 97.75 50.323C96.787 49.415 96 48.327 96 47.905C96 46.789 92.703 43.116 91.701 43.116C91.231 43.116 89.496 41.766 87.846 40.116C86.196 38.466 84.206 37.116 83.423 37.116C82.64 37.116 82 36.696 82 36.183C82 35.67 80.987 34.935 79.75 34.549C78.513 34.162 77.221 33.413 76.88 32.883C76.539 32.352 73.052 31.414 69.13 30.796C65.209 30.179 62 29.341 62 28.935C62 27.351 94.905 27.511 96 29.1ZM75.954 40.761C78.519 41.921 91 53.271 91 54.444C91 55.726 95.17 59.279 95.833 58.562C96.2 58.166 95.938 57.641 95.25 57.396C94.563 57.15 94 56.326 94 55.564C94 53.922 84.727 44.116 83.174 44.116C82.583 44.116 81.74 43.477 81.3 42.696C80.86 41.914 79.15 41.012 77.5 40.69C75.85 40.368 75.154 40.4 75.954 40.761ZM33.581 47.697C33.98 49.825 34.913 52.172 35.653 52.912C36.394 53.653 37 55.352 37 56.687C37 58.023 37.405 59.116 37.9 59.116C38.395 59.116 39.34 61.366 40 64.116C40.66 66.866 41.569 69.116 42.02 69.116C42.472 69.116 43.138 70.466 43.5 72.116C43.862 73.766 44.537 75.116 45 75.116C45.463 75.116 46.129 76.428 46.482 78.032C46.834 79.637 47.77 81.197 48.561 81.501C49.352 81.805 50 82.742 50 83.585C50 84.427 50.42 85.116 50.933 85.116C51.446 85.116 52.175 86.091 52.553 87.282C53.337 89.752 58.857 95.116 60.616 95.116C61.259 95.116 62.045 95.791 62.362 96.616C62.678 97.441 63.626 98.116 64.469 98.116C65.311 98.116 66 98.546 66 99.071C66 99.596 67.688 100.336 69.75 100.715C71.813 101.094 73.808 101.88 74.184 102.462C74.601 103.108 78.979 103.476 85.43 103.407C91.239 103.345 96.233 103.684 96.527 104.159C97.449 105.652 95.849 110.116 94.392 110.116C93.626 110.116 93 110.49 93 110.947C93 111.404 91.875 112.38 90.5 113.116C89.125 113.852 88 115.053 88 115.785C88 116.517 87.314 117.116 86.475 117.116C85.581 117.116 84.702 118.356 84.35 120.116C84.02 121.766 83.131 123.116 82.375 123.116C81.619 123.116 81 123.546 81 124.071C81 124.596 79.425 125.321 77.5 125.682C75.575 126.043 74 126.739 74 127.227C74 127.716 70.4 128.116 66 128.116C61.6 128.116 58 127.725 58 127.248C58 126.77 56.135 126.129 53.856 125.823C51.577 125.518 49.439 124.844 49.106 124.327C48.773 123.809 47.487 123.07 46.25 122.683C45.012 122.297 44 121.562 44 121.049C44 120.536 43.433 120.116 42.739 120.116C42.045 120.116 40.358 118.732 38.989 117.04C37.62 115.348 35.712 113.029 34.75 111.887C33.788 110.745 33 109.204 33 108.463C33 107.722 32.599 107.116 32.108 107.116C31.618 107.116 30.907 105.883 30.529 104.376C30.151 102.869 29.315 101.31 28.671 100.911C27.843 100.398 27.513 94.868 27.545 82.055C27.585 65.54 27.753 63.834 29.423 62.899C31.094 61.964 31.194 60.938 30.552 51.346C29.924 41.975 30.012 40.985 31.351 42.324C32.178 43.152 33.182 45.569 33.581 47.697ZM106.692 54.047C107.204 56.004 110 57.796 110 56.166C110 54.195 108.71 52.116 107.487 52.116C106.695 52.116 106.385 52.871 106.692 54.047ZM94.606 62.881C95.214 63.285 96.022 65.304 96.401 67.366C97.225 71.846 99 72.358 99 68.116C99 66.466 98.55 65.116 98 65.116C97.45 65.116 97 64.441 97 63.616C97 62.791 96.213 62.123 95.25 62.131C94.165 62.141 93.92 62.426 94.606 62.881ZM30.63 65.366C30.299 66.603 30.073 68.741 30.13 70.116C30.199 71.799 30.382 72.044 30.689 70.866C30.941 69.903 31.564 69.116 32.073 69.116C32.583 69.116 33 67.766 33 66.116C33 62.598 31.499 62.123 30.63 65.366ZM121.633 70.779C121.281 73.344 121.12 75.57 121.276 75.725C122.28 76.729 124.009 73.91 124.581 70.336C125.121 66.96 124.957 66.116 123.764 66.116C122.746 66.116 122.069 67.598 121.633 70.779ZM98 74.877C97.175 75.804 96.397 77.768 96.27 79.24C96.079 81.464 96.376 81.83 98.02 81.4C100.323 80.798 100.715 78.116 98.5 78.116C97.675 78.116 97 77.666 97 77.116C97 76.566 97.675 76.116 98.5 76.116C99.325 76.116 100 75.441 100 74.616C100 72.763 99.867 72.78 98 74.877ZM29.722 77.127C27.602 79.604 27.518 81.116 29.5 81.116C30.325 81.116 31 80.441 31 79.616C31 78.791 31.45 78.116 32 78.116C32.55 78.116 33 77.441 33 76.616C33 74.547 31.767 74.739 29.722 77.127ZM29.732 83.116C27.994 85.146 28.554 85.608 31.418 84.509C33.011 83.898 33.67 81.116 32.222 81.116C31.794 81.116 30.674 82.016 29.732 83.116ZM98.25 83.612C97.001 85.03 96.555 87.116 97.5 87.116C97.775 87.116 98.9 86.216 100 85.116C101.1 84.016 102 82.891 102 82.616C102 81.574 99.448 82.251 98.25 83.612ZM114.75 84.199C112.922 86.202 112.446 88.116 113.778 88.116C114.823 88.116 118 84.345 118 83.105C118 81.619 116.709 82.054 114.75 84.199ZM32.291 86.568C31.625 87.325 30.762 89.216 30.372 90.77C29.718 93.375 29.79 93.469 31.282 91.977C32.714 90.545 34.787 85.055 33.858 85.154C33.661 85.175 32.956 85.811 32.291 86.568ZM65.599 88.513C65.941 89.404 67.296 90.403 68.61 90.733C69.925 91.063 71 91.663 71 92.066C71 93.042 78.049 95.116 81.366 95.116C82.815 95.116 84 94.666 84 94.116C84 93.566 82.425 93.116 80.5 93.116C78.575 93.116 77 92.666 77 92.116C77 91.566 75.897 91.116 74.55 91.116C73.202 91.116 71.74 90.477 71.3 89.696C70.86 88.914 69.257 87.964 67.739 87.584C65.454 87.013 65.085 87.173 65.599 88.513ZM80.202 88.944C80.377 89.864 81.528 90.76 82.76 90.936C83.992 91.111 85 91.674 85 92.186C85 92.697 86.125 93.116 87.5 93.116C89.056 93.116 90 92.549 90 91.616C90 90.616 89 90.116 87 90.116C85.35 90.116 84 89.718 84 89.233C84 88.747 83.074 88.107 81.942 87.811C80.403 87.409 79.964 87.695 80.202 88.944ZM99 89.585C99 90.479 99.586 90.828 100.5 90.478C101.325 90.161 102 89.5 102 89.009C102 88.518 101.325 88.116 100.5 88.116C99.675 88.116 99 88.777 99 89.585ZM32.25 93.836C30.83 94.343 30.528 97.116 31.893 97.116C32.735 97.116 34.362 94.083 33.774 93.61C33.623 93.489 32.938 93.591 32.25 93.836ZM99 102.116C99 102.666 98.55 103.116 98 103.116C97.45 103.116 97 102.666 97 102.116C97 101.566 97.45 101.116 98 101.116C98.55 101.116 99 101.566 99 102.116ZM90.25 105.366C90.478 106.054 91.414 106.761 92.329 106.939C93.489 107.164 93.81 106.785 93.39 105.689C92.68 103.84 89.637 103.527 90.25 105.366ZM81 107.566C81 110.108 82.197 112.116 83.714 112.116C84.671 112.116 84.994 111.543 84.607 110.534C84.273 109.664 84 108.587 84 108.141C84 107.695 83.325 107.071 82.5 106.754C81.611 106.413 81 106.744 81 107.566ZM85 108.009C85 108.5 85.675 109.161 86.5 109.478C87.414 109.828 88 109.479 88 108.585C88 107.777 87.325 107.116 86.5 107.116C85.675 107.116 85 107.518 85 108.009ZM77.188 110.855C77.372 111.811 78.27 112.737 79.183 112.913C80.421 113.151 80.706 112.709 80.305 111.174C79.65 108.668 76.709 108.367 77.188 110.855ZM99 118.009C99 118.5 98.348 119.152 97.551 119.458C96.582 119.83 96.286 119.534 96.658 118.565C97.265 116.983 99 116.571 99 118.009ZM70.25 122.853C66.281 123.131 65 123.607 65 124.804C65 126.113 65.806 126.277 69.64 125.752C72.191 125.402 74.891 125.116 75.64 125.116C76.388 125.116 77 124.441 77 123.616C77 122.791 76.662 122.199 76.25 122.301C75.838 122.403 73.138 122.651 70.25 122.853ZM96 123.664C96 123.965 94.875 125.254 93.5 126.528C92.125 127.803 91 129.356 91 129.981C91 130.605 90.325 131.116 89.5 131.116C87.381 131.116 87.581 130.615 91.25 126.742C94.311 123.512 96 122.417 96 123.664ZM87 127.049C87 127.562 86.008 128.296 84.797 128.681C82.068 129.547 79.995 131.547 80.015 133.295C80.025 134.166 80.281 134.25 80.765 133.543C81.93 131.842 84.988 130.984 84.397 132.524C83.852 133.945 77.604 136.116 74.063 136.116C72.85 136.116 71.182 136.791 70.357 137.616C69.024 138.949 69.198 139.116 71.929 139.116C73.618 139.116 75 139.566 75 140.116C75 140.687 72 141.116 68 141.116C64.15 141.116 61 140.724 61 140.244C61 139.764 59.2 139.084 57 138.732C54.8 138.38 53 137.624 53 137.052C53 136.48 51.65 135.541 50 134.966C48.35 134.391 47 133.322 47 132.59C47 131.858 46.271 130.529 45.379 129.638C43.885 128.144 43.982 128.072 46.629 128.721C48.208 129.107 49.821 129.917 50.214 130.52C51.205 132.042 76.821 132.013 77.788 130.489C78.18 129.872 79.963 129.05 81.75 128.662C83.537 128.274 85 127.543 85 127.037C85 126.53 85.45 126.116 86 126.116C86.55 126.116 87 126.536 87 127.049Z" fill="#F57E55"/>
</svg>
