<svg width="82" height="127" viewBox="0 0 82 127" fill="none" xmlns="http://www.w3.org/2000/svg">
<path fill-rule="evenodd" clip-rule="evenodd" d="M3.58915 2.309C3.58915 5.166 6.11915 8.823 7.25715 7.612C7.71515 7.125 7.52715 6.525 6.83915 6.28C6.15215 6.034 5.58915 4.521 5.58915 2.917C5.58915 1.313 5.13915 0 4.58915 0C4.03915 0 3.58915 1.039 3.58915 2.309ZM2.74015 10.004C3.31615 11.657 3.63015 17.057 3.43815 22.005C3.24615 26.953 3.42715 31.001 3.83915 31.001C4.25115 31 4.58915 29.425 4.58915 27.5C4.58915 25.056 5.04115 24 6.08915 24C6.91415 24 7.58915 24.45 7.58915 25C7.58915 25.55 8.21515 26 8.98115 26C11.4471 26 12.0152 31.062 12.1222 54C12.1902 68.823 12.6292 77.46 13.4072 79.315C15.1292 83.417 14.8811 84.232 12.3391 82.823C11.1011 82.137 9.75215 81.671 9.33915 81.788C8.92615 81.904 8.58915 81.582 8.58915 81.071C8.58915 80.561 8.00915 79.548 7.30115 78.821C5.88915 77.372 3.24215 67.014 4.07215 66.184C4.35615 65.899 4.58915 66.176 4.58915 66.798C4.58915 67.42 5.48915 68.411 6.58915 69C9.42315 70.517 9.13815 68.64 6.06715 65.569C3.73415 63.236 3.52615 62.263 3.28315 52.519C2.99015 40.84 1.48015 38.237 0.37015 47.5C-1.14785 60.179 2.17715 77.884 7.16515 83.685C8.49715 85.233 9.58715 86.994 9.58815 87.598C9.58915 88.977 27.5702 106 29.0242 106C29.6132 106 31.2762 107.251 32.7192 108.779C35.4882 111.713 44.3531 116.703 45.9171 116.208C46.4241 116.048 47.6861 116.683 48.7201 117.619C49.7551 118.555 50.9322 118.99 51.3372 118.586C51.7412 118.181 51.3611 117.452 50.4911 116.965C49.6211 116.478 47.8241 115.136 46.4991 113.983C44.1831 111.969 44.1771 111.93 46.3391 112.979C49.2381 114.385 49.3992 112.504 46.5112 110.958C45.2942 110.307 44.6651 109.244 44.9921 108.391C45.3501 107.46 44.6411 106.59 43.0261 105.976C38.4771 104.247 35.5891 103.766 35.5891 104.739C35.5891 106.363 38.9692 109.676 41.4142 110.448C45.0612 111.6 43.3801 112.061 39.5331 110.964C37.3181 110.332 35.0181 108.524 33.0891 105.899C31.4391 103.654 29.3011 101.392 28.3391 100.873C27.3771 100.354 26.5891 99.541 26.5891 99.065C26.5891 98.59 25.0521 95.918 23.1741 93.127C21.2961 90.336 19.4602 86.69 19.0951 85.026C18.7291 83.362 18.0481 82 17.5801 82C15.7251 82 14.5362 70.532 14.6712 53.947C14.7762 40.968 14.3992 34.754 13.1992 29.682C11.4182 22.151 7.77715 13 6.56415 13C6.13515 13 5.31415 11.65 4.73915 10C4.16415 8.35 3.24315 7 2.69315 7C2.03715 7 2.05315 8.033 2.74015 10.004ZM11.0521 13.75C11.9771 17.487 17.5651 22.645 18.7181 20.825C19.3091 19.894 19.5632 19.858 19.5742 20.704C19.5822 21.367 23.0761 23.518 27.3391 25.485C31.6021 27.452 35.8701 29.498 36.8251 30.031C37.7801 30.564 39.2051 31 39.9921 31C40.7791 31 41.5831 31.481 41.7791 32.069C41.9751 32.657 45.1662 34.795 48.8712 36.819C56.0512 40.743 69.5891 52.331 69.5891 54.553C69.5891 55.286 70.4221 56.475 71.4401 57.193C75.9171 60.354 79.1391 71.973 78.2881 81.89C77.4741 91.378 74.2781 103 72.4821 103C71.9911 103 71.5891 103.514 71.5891 104.142C71.5891 105.914 62.5131 124.413 61.2601 125.196C60.6481 125.578 60.5081 126.253 60.9501 126.694C61.9271 127.671 63.5761 125.497 68.3021 117C70.2901 113.425 72.2492 110.275 72.6562 110C74.5842 108.695 78.8251 96.643 80.3151 88.236C81.7261 80.274 81.7901 77.798 80.7441 71.701C79.3131 63.354 75.3441 55.709 68.9151 48.919C66.4791 46.346 63.9461 43.581 63.2871 42.776C61.8491 41.019 53.3701 35.912 48.8391 34.075C47.0511 33.35 45.5891 32.38 45.5891 31.919C45.5891 31.458 42.5091 29.536 38.7451 27.647C30.5051 23.511 27.2561 21.705 26.5891 20.887C25.8461 19.977 11.6661 11 10.9701 11C10.6411 11 10.6781 12.238 11.0521 13.75ZM8.38915 20.699C9.01315 22.734 9.33615 24.587 9.10515 24.817C8.87515 25.048 8.39115 24.058 8.02915 22.618C7.66815 21.178 6.97115 20 6.48115 20C5.99015 20 5.58915 19.325 5.58915 18.5C5.58915 15.686 7.25115 16.992 8.38915 20.699ZM17.0891 24.523C18.7391 25.871 20.0921 27.317 20.0961 27.737C20.1111 29.232 23.5551 33.367 24.2271 32.696C24.6021 32.32 24.0501 31.04 23.0001 29.851L21.0891 27.69L23.8701 29.481C25.4001 30.465 26.8621 31.06 27.1201 30.803C27.6541 30.269 21.1931 24.912 17.9051 23.162C14.2971 21.243 13.8951 21.913 17.0891 24.523ZM7.64415 30.5C7.61515 32.893 9.22315 35.7 10.1131 34.809C10.4611 34.462 10.0531 32.9 9.20715 31.338C7.93915 28.998 7.66515 28.851 7.64415 30.5ZM29.5891 31.75C29.5891 32.896 29.0771 34.004 28.4521 34.212C27.7921 34.432 27.1032 37.892 26.8102 42.455L26.3051 50.319L24.4892 46.91C22.6192 43.399 21.8921 40.349 23.5501 42.971C24.0621 43.78 24.7942 44.128 25.1772 43.745C26.0162 42.906 23.6632 39.836 22.6572 40.458C22.2702 40.697 21.3912 39.342 20.7062 37.447C19.5792 34.33 16.5891 32.553 16.5891 35C16.5891 35.55 17.0391 36 17.5891 36C18.1391 36 18.6092 36.788 18.6332 37.75C18.6572 38.712 19.2741 41.172 20.0031 43.216C21.2461 46.696 21.2152 46.87 19.5252 45.966C16.2822 44.23 16.4501 44.936 20.2991 49.201C26.0521 55.578 33.5891 63.161 33.5891 62.572C33.5891 62.284 32.6912 60.575 31.5932 58.774C30.4952 56.973 29.5952 54.712 29.5932 53.75C29.5912 52.788 29.1391 52 28.5891 52C28.0391 52 27.5891 49.75 27.5891 47C27.5891 44.25 28.0072 42 28.5172 42C29.5872 42 31.1441 31.222 30.2101 30.288C29.8681 29.946 29.5891 30.604 29.5891 31.75ZM34.5891 31.977C34.5891 33.402 39.5241 36.408 40.3701 35.499C40.7661 35.074 40.5181 34.523 39.8211 34.274C39.1241 34.025 37.9182 33.187 37.1432 32.411C35.4932 30.761 34.5891 30.607 34.5891 31.977ZM22.5891 35.882C22.5891 36.432 23.0391 37.16 23.5891 37.5C24.1391 37.84 24.5891 37.668 24.5891 37.118C24.5891 36.568 24.1391 35.84 23.5891 35.5C23.0391 35.16 22.5891 35.332 22.5891 35.882ZM8.58915 37.5C8.58915 38.325 9.02515 39 9.55815 39C10.0901 39 10.2671 38.325 9.95115 37.5C9.63415 36.675 9.19815 36 8.98215 36C8.76615 36 8.58915 36.675 8.58915 37.5ZM37.5891 36.526C37.5891 36.759 38.9391 37.647 40.5891 38.5C42.2391 39.353 43.5891 39.634 43.5891 39.124C43.5891 38.613 42.2391 37.725 40.5891 37.15C38.9391 36.575 37.5891 36.294 37.5891 36.526ZM5.58915 44.542C5.58915 45.729 9.61115 49.311 10.2391 48.683C10.6081 48.314 10.0932 47.11 9.09515 46.006C7.37515 44.106 5.58915 43.36 5.58915 44.542ZM55.6341 45.555C56.3441 46.41 57.8621 47.596 59.0071 48.19C60.8651 49.155 60.8281 48.988 58.6651 46.636C56.1041 43.852 53.4291 42.897 55.6341 45.555ZM44.0891 46C44.4291 46.55 45.1571 47 45.7071 47C46.2571 47 46.4291 46.55 46.0891 46C45.7491 45.45 45.0211 45 44.4711 45C43.9211 45 43.7491 45.45 44.0891 46ZM53.5891 47C53.5891 47.55 54.0661 48 54.6481 48C55.2301 48 55.4291 47.55 55.0891 47C54.7491 46.45 54.2732 46 54.0302 46C53.7872 46 53.5891 46.45 53.5891 47ZM32.0891 50C32.4291 50.55 33.1571 51 33.7071 51C34.2571 51 34.4291 50.55 34.0891 50C33.7491 49.45 33.0211 49 32.4711 49C31.9211 49 31.7491 49.45 32.0891 50ZM41.6031 49.55C41.6451 52.315 46.4642 69.032 46.4892 66.5C46.5312 62.214 43.9991 51.01 42.6931 49.704C42.0861 49.097 41.5951 49.028 41.6031 49.55ZM49.5891 49.393C49.5891 49.609 50.2871 50.054 51.1411 50.382C52.0311 50.723 52.4321 50.555 52.0821 49.989C51.4951 49.038 49.5891 48.583 49.5891 49.393ZM48.6832 57.808C48.6592 61.489 47.9601 67.65 47.1311 71.5C46.3021 75.35 45.5642 80.975 45.4902 84C45.4172 87.025 45.1531 88.6 44.9031 87.5C44.2321 84.543 41.3451 76.911 41.0201 77.236C40.7141 77.542 42.8161 86.988 44.0841 91C44.8021 93.273 44.5782 93.185 41.6292 90.034C39.6982 87.973 38.8602 86.41 39.5602 86.176C40.2072 85.961 38.6032 84.37 35.9962 82.642C33.3892 80.914 30.7681 78.6 30.1721 77.5C29.5761 76.4 28.8132 75.275 28.4762 75C28.1392 74.725 26.3772 71.575 24.5602 68C20.9002 60.795 18.8291 57.992 17.1841 58.015C16.4731 58.025 16.5071 58.296 17.2811 58.788C18.2921 59.431 27.5891 75.314 27.5891 76.399C27.5891 76.603 25.9331 75.253 23.9091 73.399C20.1401 69.947 17.9412 69.522 20.9282 72.823C21.8422 73.832 22.5891 75.163 22.5891 75.781C22.5891 76.398 24.5801 78.274 27.0131 79.948C29.4461 81.622 32.3892 84.201 33.5522 85.68C34.7152 87.158 37.1721 89.391 39.0131 90.642C42.3261 92.893 49.5891 105.757 49.5891 109.373C49.5891 110.268 50.0021 111 50.5071 111C51.0131 111 52.3991 113.925 53.5891 117.5C54.7791 121.075 55.9712 124 56.2382 124C56.5052 124 56.4682 123.1 56.1562 122C55.8442 120.9 55.3161 119.044 54.9821 117.875C54.5811 116.472 54.7471 115.98 55.4701 116.427C56.1561 116.851 56.3442 116.525 55.9732 115.558C55.6462 114.707 54.9821 114.257 54.4961 114.558C54.0101 114.858 53.8801 114.406 54.2071 113.552C54.5351 112.698 54.3302 112 53.7512 112C53.1612 112 53.9332 108.442 55.5132 103.881C57.8612 97.107 59.0741 95.123 62.8401 91.904C67.5491 87.879 70.6602 81.911 70.4902 77.23C70.4032 74.83 70.2372 74.984 69.1132 78.5C67.7082 82.894 62.7141 91 61.4111 91C60.3591 91 60.3312 88.275 61.3792 87.833C62.4362 87.387 66.6101 76.26 66.5081 74.161C66.4601 73.189 65.8801 73.741 65.1091 75.492C63.8191 78.421 63.7841 78.433 63.4401 76.07C63.2471 74.743 62.5882 73.492 61.9762 73.291C61.2632 73.056 60.6811 75.364 60.3561 79.712C60.0771 83.446 59.1422 88.075 58.2792 90C57.4162 91.925 55.7662 96.777 54.6112 100.783C52.8242 106.98 52.3062 107.859 51.1292 106.683C49.6162 105.17 47.1541 97.102 47.9591 96.296C48.2351 96.02 48.0511 94.716 47.5501 93.397C46.3301 90.188 47.1331 90.378 50.5331 94.1L53.3652 97.201L53.1432 94.35C52.8142 90.132 51.4961 86 50.4811 86C49.9901 86 49.5891 86.675 49.5891 87.5C49.5891 88.325 49.9912 89 50.4822 89C51.4682 89 52.8852 92.037 52.2132 92.709C51.9802 92.942 50.8452 92.118 49.6902 90.878C47.0842 88.081 46.9252 82.664 49.3782 80.211C53.0142 76.575 57.7512 65.885 58.0562 60.628C58.2202 57.808 58.1572 56.625 57.9172 58C56.8642 64.034 52.9462 72.594 49.6832 75.99C48.4362 77.288 48.3392 76.837 48.9342 72.49C49.3092 69.746 50.0601 67.35 50.6031 67.167C51.1451 66.983 51.5891 63.544 51.5891 59.524C51.5891 54.107 51.2191 52.072 50.1591 51.665C49.0081 51.224 48.7192 52.427 48.6832 57.808ZM32.6041 53.693C32.5831 55.366 36.6321 58.016 39.0621 57.918C40.5311 57.859 40.1261 57.418 37.5891 56.316C35.6641 55.479 33.7581 54.278 33.3541 53.647C32.8111 52.798 32.6161 52.81 32.6041 53.693ZM63.5891 58C63.5891 58.55 64.0661 59 64.6481 59C65.2301 59 65.4291 58.55 65.0891 58C64.7491 57.45 64.2732 57 64.0302 57C63.7872 57 63.5891 57.45 63.5891 58ZM34.5891 58.883C34.5891 59.809 38.0241 60.991 40.5891 60.947C41.4141 60.933 40.5751 60.264 38.7241 59.461C34.7801 57.749 34.5891 57.722 34.5891 58.883ZM36.5891 62.146C36.5891 62.719 37.4581 63.414 38.5201 63.692C39.5821 63.97 40.6931 64.828 40.9881 65.599C41.2841 66.369 42.2312 67 43.0932 67C44.3212 67 44.4401 66.59 43.6451 65.105C42.4841 62.934 36.5891 60.462 36.5891 62.146ZM37.1531 71.293C37.5291 72.279 38.0881 72.834 38.3961 72.526C38.7041 72.219 38.3972 71.412 37.7132 70.733C36.7252 69.753 36.6111 69.868 37.1531 71.293ZM7.32115 73C8.26315 74.1 9.45315 75 9.96615 75C10.4792 75 10.0841 74.1 9.08915 73C8.09415 71.9 6.90315 71 6.44415 71C5.98415 71 6.37915 71.9 7.32115 73ZM33.3591 75C35.5821 77.071 37.5891 77.622 37.5891 76.161C37.5891 75.376 33.2761 73 31.8531 73C31.5011 73 32.1781 73.9 33.3591 75ZM9.56515 78.954C10.1671 80.079 11.0941 81 11.6241 81C13.2611 81 12.6932 79.546 10.5292 78.195C8.62715 77.007 8.55315 77.065 9.56515 78.954ZM34.4501 80.033C35.7481 81.115 37.3231 81.985 37.9501 81.967C38.5761 81.948 38.0271 81.048 36.7281 79.967C35.4301 78.885 33.8551 78.015 33.2281 78.033C32.6021 78.052 33.1511 78.952 34.4501 80.033ZM55.8181 79.188C56.0361 79.841 56.7492 80.553 57.4022 80.771C58.1332 81.015 58.3561 80.557 57.9831 79.584C57.2851 77.766 55.2181 77.388 55.8181 79.188ZM54.6091 82.524C55.3051 83.362 56.0801 83.842 56.3321 83.591C57.0251 82.897 55.6161 81 54.4081 81C53.7441 81 53.8201 81.574 54.6091 82.524ZM15.7481 88.129C17.2101 89.593 18.9251 91.759 19.5581 92.941C21.7101 96.963 16.8071 92.983 12.8561 87.5C9.32115 82.596 10.4731 82.847 15.7481 88.129ZM52.5891 83.882C52.5891 84.432 53.0391 85.16 53.5891 85.5C54.1391 85.84 54.5891 85.668 54.5891 85.118C54.5891 84.568 54.1391 83.84 53.5891 83.5C53.0391 83.16 52.5891 83.332 52.5891 83.882ZM21.5891 86.253C21.5891 87.854 26.2101 91.479 32.5891 94.882C35.0641 96.202 37.3141 97.595 37.5891 97.977C37.8641 98.36 39.6641 99.19 41.5891 99.822C44.6141 100.817 44.8472 100.786 43.3022 99.599C42.3182 98.843 41.6432 97.612 41.8022 96.862C41.9912 95.966 40.9131 95.388 38.6481 95.172C34.9451 94.82 28.8701 91 32.0131 91C32.9451 91 33.4291 90.55 33.0891 90C32.7491 89.45 31.2602 89.007 29.7802 89.015C27.6752 89.027 27.4161 89.242 28.5891 90C29.4661 90.567 29.6002 90.976 28.9122 90.985C28.2642 90.993 26.9142 89.966 25.9122 88.703C23.4472 85.597 21.5891 84.544 21.5891 86.253ZM26.2271 86.5C26.5441 87.325 27.4301 88 28.1961 88C28.9621 88 29.5891 87.325 29.5891 86.5C29.5891 85.675 28.7041 85 27.6201 85C26.2811 85 25.8361 85.48 26.2271 86.5ZM48.5891 97.496C48.5891 98.285 49.4451 99.388 50.4911 99.947C52.0961 100.807 52.3152 100.667 51.8922 99.052C51.2862 96.732 48.5891 95.462 48.5891 97.496ZM65.5891 97.441C65.5891 98.298 66.0391 99 66.5891 99C67.1391 99 67.5891 98.577 67.5891 98.059C67.5891 97.541 67.1391 96.84 66.5891 96.5C66.0391 96.16 65.5891 96.584 65.5891 97.441ZM63.8181 101.188C64.0361 101.841 64.7492 102.553 65.4022 102.771C66.1332 103.015 66.3561 102.557 65.9831 101.584C65.2851 99.766 63.2181 99.388 63.8181 101.188ZM36.0891 102C36.4291 102.55 37.1301 103 37.6481 103C38.1661 103 38.5891 102.55 38.5891 102C38.5891 101.45 37.8872 101 37.0302 101C36.1732 101 35.7491 101.45 36.0891 102ZM62.6201 103.5C62.6201 104.05 63.0561 105.175 63.5891 106C64.1221 106.825 64.5582 107.05 64.5582 106.5C64.5582 105.95 64.1221 104.825 63.5891 104C63.0561 103.175 62.6201 102.95 62.6201 103.5ZM58.6282 108.136C59.6442 111.678 60.5961 113.037 60.5751 110.917C60.5511 108.409 59.3802 105 58.5422 105C58.0952 105 58.1332 106.411 58.6282 108.136ZM56.6211 111.191C56.6031 112.121 57.0692 113.179 57.6562 113.541C59.4182 114.63 59.6652 113.482 58.1102 111.427C56.8302 109.735 56.6491 109.706 56.6211 111.191Z" fill="#F57E55"/>
</svg>
