<svg width="134" height="162" viewBox="0 0 134 162" fill="none" xmlns="http://www.w3.org/2000/svg">
<path fill-rule="evenodd" clip-rule="evenodd" d="M60.5 2.69277C58.682 4.18377 58.091 5.14076 59 5.12376C60.522 5.09476 65 1.83177 65 0.751765C65 -0.398235 63.462 0.264765 60.5 2.69277ZM66.015 0.544765C65.982 2.43977 74.36 37.1348 74.755 36.7398C75.129 36.3658 73.473 27.1478 72.321 23.1878C72.077 22.3488 72.786 23.2368 73.897 25.1618C77.037 30.6048 76.356 27.0748 72.603 18.4598C70.734 14.1708 68.912 8.85276 68.554 6.64176C67.963 2.99676 66.052 -1.59123 66.015 0.544765ZM92 2.62677C89.001 3.65577 88.457 4.32976 88.199 7.33076C88.01 9.53776 88.456 11.2948 89.404 12.0818C90.719 13.1738 90.789 12.9118 89.954 10.0028C89.43 8.17276 89 6.50277 89 6.29377C89 6.08377 90.35 6.18177 92 6.51177C95.134 7.13877 96.304 5.61976 93.25 4.88976C91.583 4.49076 91.583 4.43477 93.25 3.70977C95.731 2.62977 98.513 3.83177 97.217 5.42377C96.662 6.10477 95.688 10.0368 95.053 14.1618C93.65 23.2658 92.684 50.0248 93.916 45.6618C94.382 44.0118 94.826 38.8368 94.901 34.1618C94.977 29.4868 95.521 22.5118 96.109 18.6618C96.696 14.8118 97.168 10.4238 97.156 8.91177C97.144 7.39977 97.54 6.16177 98.035 6.16177C98.531 6.16177 98.7 6.77976 98.411 7.53376C98.013 8.57076 98.572 8.76677 100.692 8.33377C102.418 7.98177 102.865 7.62477 101.853 7.40777C100.947 7.21377 99.988 6.22376 99.722 5.20776C98.95 2.25476 95.978 1.26177 92 2.62677ZM58.813 7.84476C59.534 8.13376 60.397 8.09777 60.729 7.76577C61.061 7.43377 60.471 7.19777 59.417 7.24077C58.252 7.28877 58.015 7.52576 58.813 7.84476ZM57.256 10.4118C58.862 14.6848 59.139 16.3658 58.137 15.7458C56.859 14.9568 51 17.7818 51 19.1878C51 19.7238 51.45 20.1618 52 20.1618C52.56 20.1618 53.002 22.9148 53.004 26.4118C53.008 33.1588 55.345 49.2028 56.995 53.8178C57.922 56.4108 57.883 56.4968 56.559 54.7938C54.365 51.9708 52.153 40.7248 51.863 30.9118C51.721 26.0998 51.179 22.1618 50.659 22.1618C50.098 22.1618 49.939 25.4438 50.268 30.2388C50.572 34.6818 50.661 38.1558 50.464 37.9598C50.268 37.7628 48.759 34.0158 47.111 29.6318C45.463 25.2488 44.089 22.2328 44.057 22.9298C44.01 23.9718 49.6 41.6658 51.712 47.1618C52.029 47.9868 50.46 46.6368 48.225 44.1618C45.956 41.6488 42.974 36.6568 41.471 32.8558C39.99 29.1118 38.547 26.2808 38.264 26.5638C37.981 26.8468 38.5 28.9538 39.417 31.2448C40.334 33.5368 40.912 35.5828 40.702 35.7928C39.914 36.5808 37.318 32.5208 36.245 28.8218C35.002 24.5328 35.401 22.6058 37.719 21.7158C39.028 21.2138 39.074 21.3678 37.999 22.6628C35.967 25.1118 37.207 25.0508 40.874 22.5208C43.518 20.6978 43.905 20.0628 42.665 19.5868C41.795 19.2528 39.489 19.5058 37.541 20.1478C33.682 21.4218 33.06 23.5598 35.036 28.7578C35.98 31.2398 35.652 31.0958 31.363 27.1418C27.106 23.2188 26.585 22.9868 25.952 24.7308C25.566 25.7928 25.497 27.0818 25.798 27.5958C26.099 28.1088 26.616 27.7568 26.947 26.8118C27.42 25.4638 29.811 27.4078 38.097 35.8788C51.101 49.1738 52.351 50.8528 59.9 65.1618C66.461 77.5988 67.695 78.2288 63.122 66.8088C59.015 56.5498 56.017 43.7678 54.565 30.3178C53.459 20.0778 53.49 18.5268 54.824 17.5498C55.659 16.9388 57.103 16.6378 58.033 16.8808C60.459 17.5148 61.333 14.3188 59.5 11.5208C57.855 9.01076 56.472 8.32776 57.256 10.4118ZM62 9.35977C62 9.53277 62.484 11.2468 63.076 13.1688C63.668 15.0898 64.308 20.0368 64.499 24.1618C64.774 30.0978 65.928 34.6858 70.033 46.1618C73.35 55.4318 75.667 63.9078 76.458 69.6618L77.695 78.6618L78.188 73.1618C78.634 68.1908 78.673 68.3348 78.591 74.6618C78.504 81.3558 78.399 81.6508 76.192 81.4128C74.922 81.2768 74.121 81.5488 74.411 82.0168C74.7 82.4858 73.755 83.4078 72.309 84.0668C69.51 85.3428 68.065 84.3688 68 81.1618C67.983 80.3368 67.508 78.9868 66.943 78.1618C66.215 77.0968 66.112 78.1108 66.587 81.6618C67.375 87.5458 67.08 87.4118 63.247 80.1508C61.654 77.1318 59.839 73.7618 59.214 72.6618C58.589 71.5618 56.933 68.1378 55.533 65.0538C51.347 55.8258 35.462 36.4138 27.597 30.9148C25.894 29.7238 29.112 33.6048 34.75 39.5398C40.388 45.4748 45 50.8428 45 51.4688C45 52.0948 42.945 50.3698 40.434 47.6348C35.272 42.0118 35.566 43.4748 40.889 49.8978C42.972 52.4108 44.671 53.6948 45.066 53.0548C45.752 51.9448 47.616 54.2488 52.031 61.6618C53.824 64.6738 53.977 65.3108 52.649 64.2418C51.679 63.4608 49.743 60.8728 48.347 58.4918C45.791 54.1298 44.232 52.7178 45.436 55.8548C46.048 57.4508 36.344 48.9408 31.083 43.2678C29.754 41.8348 28.329 40.6618 27.916 40.6618C27.504 40.6618 26.829 40.3238 26.417 39.9118C25.182 38.6768 19.203 39.0648 18.703 40.4118C18.364 41.3278 17.749 41.1938 16.406 39.9118C15.09 38.6568 14.959 38.1618 15.941 38.1618C17.008 38.1618 16.954 37.7678 15.695 36.3778C14.2 34.7248 14.233 34.4978 16.137 33.3078C19.049 31.4898 17.838 30.8458 14.633 32.5088C12.316 33.7108 12.166 34.0548 13.484 35.1488C14.318 35.8408 15 36.8718 15 37.4388C15 38.0068 14.177 37.7268 13.171 36.8168C12.165 35.9068 10.959 35.1618 10.491 35.1618C10.023 35.1618 11.547 36.7938 13.878 38.7898C16.618 41.1338 17.91 42.9538 17.534 43.9338C17.214 44.7688 17.75 46.3638 18.726 47.4788C20.685 49.7168 19.049 49.0978 15.504 46.2598C14.407 45.3808 16.73 47.8638 20.666 51.7778C27.156 58.2288 40 74.4758 40 76.2318C40 76.6258 39.349 77.1978 38.554 77.5028C37.599 77.8688 36.125 76.4608 34.215 73.3568C30.081 66.6378 20.521 55.6218 15.103 51.3318C12.342 49.1458 10.595 47.0048 10.783 46.0378C11.253 43.6148 8.218 42.8868 7.015 45.1328C5.741 47.5148 5.738 48.1618 7 48.1618C7.55 48.1618 8 47.4868 8 46.6618C8 45.8368 8.408 45.1618 8.906 45.1618C9.405 45.1618 9.602 45.9688 9.344 46.9548C9.02 48.1918 11.406 51.3658 17.049 57.2048C25.002 65.4338 26.205 65.7088 19.054 57.6628L15.5 53.6648L19.338 57.1628C24.521 61.8878 29.394 68.1008 28.566 68.9288C28.195 69.2998 27.578 69.1658 27.196 68.6298C26.242 67.2948 16.341 60.8868 11.102 58.2138C3.506 54.3388 5.725 56.6708 14.748 62.0458C23.762 67.4158 36 76.6038 36 78.0018C36 78.4358 34.369 79.5688 32.376 80.5198C28.984 82.1368 28.634 82.1408 26.9 80.5708C25.881 79.6488 25.247 78.5708 25.492 78.1748C25.736 77.7788 23.899 75.9918 21.407 74.2028C18.916 72.4138 17.11 70.7178 17.394 70.4348C17.677 70.1508 20.238 71.7738 23.085 74.0408C25.932 76.3068 27.726 78.1618 27.072 78.1618C26.417 78.1618 26.179 78.6428 26.542 79.2298C26.905 79.8178 27.855 80.0478 28.653 79.7418C29.57 79.3898 29.844 79.6048 29.397 80.3278C28.946 81.0588 29.137 81.1958 29.927 80.7068C31.887 79.4958 26.778 74.8028 15 66.9958C6.297 61.2258 4.519 59.6218 4.612 57.6218C4.683 56.0828 4.05 54.9948 2.863 54.6178C1.369 54.1438 1.206 53.6458 2.036 52.0948C2.605 51.0318 3.56 50.1618 4.158 50.1618C4.863 50.1618 4.801 50.6968 3.98 51.6858C3.284 52.5238 2.994 53.4888 3.334 53.8288C3.674 54.1698 4.241 53.6978 4.593 52.7798C5.137 51.3608 5.896 51.6558 9.671 54.7488C12.112 56.7488 14.33 58.1648 14.6 57.8948C15.155 57.3398 5.173 49.1618 3.941 49.1618C2.405 49.1618 0 52.3228 0 54.3398C0 55.8428 0.444 56.2058 1.694 55.7258C3.286 55.1148 3.286 55.1888 1.694 56.9478C0.762 57.9768 0.01 59.4588 0.022 60.2408C0.036 61.1108 0.796 60.6928 1.982 59.1618C3.763 56.8648 3.875 56.8368 3.369 58.8128C2.904 60.6288 3.929 61.6238 9.942 65.1968C13.86 67.5248 16.896 69.5998 16.687 69.8078C16.479 70.0168 13.078 68.3168 9.13 66.0318C5.183 63.7458 1.715 62.1138 1.425 62.4038C1.134 62.6938 3.796 64.5528 7.339 66.5348C14.226 70.3858 21.579 76.1158 23.915 79.4508C24.702 80.5748 24.869 81.1988 24.287 80.8398C23.676 80.4618 22.996 81.3418 22.677 82.9238C22.262 84.9848 23.027 87.0208 25.772 91.1618C27.778 94.1868 38.059 110.162 48.619 126.662C59.179 143.162 68.647 157.704 69.66 158.977L71.5 161.292L80 158.618C87.801 156.163 98.682 151.865 124 141.238C129.496 138.931 133.434 136.705 133.344 135.956C132.188 126.375 116.668 47.5748 115.835 47.0598C114.719 46.3708 108.625 48.1138 105.224 50.0958C102.383 51.7518 105.837 51.3898 110.739 49.5178C113.107 48.6128 115.178 48.0508 115.341 48.2678C115.505 48.4848 117.569 59.4618 119.929 72.6618C122.289 85.8618 125.793 104.987 127.715 115.162C129.636 125.337 131.274 134.244 131.354 134.956C131.502 136.271 124.838 139.293 98 150.083C84.341 155.574 72.148 159.662 71.491 158.971C71.33 158.801 64.03 147.412 55.27 133.662C46.51 119.912 37.24 105.395 34.671 101.402C29.804 93.8378 28.984 91.5578 31.472 92.5128C33.702 93.3688 39.208 91.1458 38.624 89.6258C38.35 88.9118 38.837 88.0548 39.706 87.7208C40.575 87.3878 41.065 86.8938 40.795 86.6238C40.525 86.3538 37.767 87.2948 34.666 88.7148C29.271 91.1848 27 91.2678 27 88.9958C27 88.4198 27.699 88.2158 28.554 88.5438C30.138 89.1518 40.61 84.4388 39.699 83.5278C39.424 83.2528 36.904 84.1898 34.099 85.6118C26.807 89.3068 27.797 87.9328 35.552 83.5958C39.155 81.5808 41.876 79.7038 41.597 79.4258C41.133 78.9618 32.654 83.3928 27.25 86.9218C26.013 87.7308 25 87.9358 25 87.3778C25 86.8208 29.017 84.2898 33.927 81.7538L42.853 77.1438L47.617 85.1528C50.265 89.6048 53.074 93.1778 53.941 93.1968C54.941 93.2198 54.603 93.7458 53 94.6618C49.237 96.8128 52.815 96.4288 57.859 94.1398C60.257 93.0518 62.455 92.1618 62.744 92.1618C63.886 92.1618 58.362 95.9298 56.25 96.5918C55.013 96.9798 54 97.7158 54 98.2288C54 99.6068 54.435 99.4698 61.775 95.7918C65.474 93.9378 71.425 91.3908 75 90.1298C82.075 87.6358 85.439 85.5588 80.5 86.7348C78.85 87.1268 75.304 88.3008 72.62 89.3418C69.936 90.3828 67.525 91.0198 67.262 90.7568C66.688 90.1828 69.794 88.8578 85.272 83.0748C91.747 80.6558 96.641 78.5418 96.147 78.3778C95.653 78.2128 90.397 79.9008 84.467 82.1288C78.536 84.3558 73.499 85.9948 73.274 85.7688C72.832 85.3268 85.32 80.3408 96.248 76.5948C99.959 75.3228 103.353 74.0618 103.79 73.7918C104.227 73.5208 104.033 69.1068 103.359 63.9808C102.685 58.8558 102.036 53.5368 101.917 52.1618C101.798 50.7868 101.366 54.9768 100.957 61.4718C100.548 67.9678 100.053 73.4238 99.857 73.5978C99.66 73.7708 98.487 74.2248 97.25 74.6048C95.197 75.2358 94.993 74.9628 94.921 71.4788C94.878 69.3798 94.615 68.2248 94.338 68.9118C94.06 69.5998 92.971 70.1618 91.917 70.1618C90.667 70.1618 90 70.8578 90 72.1618C90 73.2728 90.667 74.1618 91.5 74.1618C92.325 74.1618 93 74.5638 93 75.0548C93 75.9118 90.669 77.1618 89.071 77.1618C86.585 77.1618 87.461 29.2348 90.128 19.3578C91.221 15.3108 91.148 14.9518 88.9 13.3578C85.806 11.1628 80.251 10.1498 79.092 11.5678C77.868 13.0648 75.773 36.4318 75.766 48.6618L75.76 58.6618L70.938 44.9798C68.286 37.4548 65.853 29.5798 65.532 27.4798C65.211 25.3798 67.015 29.8938 69.543 37.5098C72.07 45.1258 74.352 51.1428 74.615 50.8798C74.878 50.6168 73.095 43.9358 70.653 36.0318C68.212 28.1288 65.639 19.0538 64.938 15.8658C64.236 12.6788 63.288 9.83977 62.831 9.55677C62.374 9.27477 62 9.18577 62 9.35977ZM100.262 9.97876C98.245 11.2598 96.834 20.7598 96.522 35.1618C96.362 42.5868 95.858 50.4618 95.403 52.6618L94.575 56.6618L93.919 53.1618C93.389 50.3328 93.257 50.8118 93.231 55.6618C93.175 66.1598 94.387 67.5078 95.856 58.5828C98.003 45.5308 106.277 23.1618 108.958 23.1618C110.446 23.1618 111.126 24.9528 109.805 25.3938C108.868 25.7058 108.866 25.9608 109.799 26.5378C110.46 26.9458 111 26.7768 111 26.1618C111 25.5468 111.446 25.3188 111.991 25.6558C112.58 26.0208 112.178 27.3598 110.996 28.9648C108.874 31.8488 104.603 43.0978 105.347 43.8428C105.593 44.0888 106.748 41.4488 107.913 37.9758C109.078 34.5028 110.516 30.9868 111.11 30.1618C111.978 28.9548 112.052 29.0528 111.489 30.6618C111.103 31.7618 110.11 34.5988 109.282 36.9658C108.453 39.3338 107.986 41.4818 108.245 41.7398C108.503 41.9988 109.952 38.8178 111.464 34.6728C114.061 27.5518 114.123 26.9978 112.583 24.6488C109.837 20.4578 107.223 21.4338 104.342 27.7258C102.941 30.7858 101.628 33.1238 101.425 32.9198C101.222 32.7168 102.393 27.4528 104.028 21.2218C105.662 14.9908 107 9.72876 107 9.52776C107 8.82876 101.492 9.19776 100.262 9.97876ZM105 11.6468C105 11.9138 103.886 15.9748 102.525 20.6708C101.164 25.3678 99.751 32.1368 99.384 35.7138C99.018 39.2918 98.338 42.4528 97.874 42.7398C97.41 43.0268 97.227 42.0018 97.468 40.4618C97.708 38.9218 98.158 32.7118 98.468 26.6618C99.183 12.6778 99.588 11.1618 102.617 11.1618C103.927 11.1618 105 11.3798 105 11.6468ZM84.691 12.8838C81.319 13.3908 81.111 13.8678 79.428 24.9608L78.107 33.6618L78.673 23.6618C78.985 18.1618 79.437 13.3248 79.679 12.9118C79.92 12.4988 81.779 12.2288 83.809 12.3118C86.923 12.4378 87.061 12.5278 84.691 12.8838ZM88.198 15.1478C89.6 15.1598 89.74 15.6408 88.998 17.9118C87.069 23.8168 85.892 40.5268 86.098 59.0818L86.314 78.5018L84.012 79.3528C82.746 79.8218 81.497 79.9918 81.237 79.7318C80.977 79.4718 80.528 74.2878 80.24 68.2108C79.715 57.1328 78 52.6298 78 62.3288C78 65.1698 77.731 67.2258 77.402 66.8968C76.814 66.3088 76.836 54.5488 77.436 48.6618C77.604 47.0118 77.868 44.3118 78.021 42.6618C78.256 40.1398 78.412 40.3778 79 44.1618C79.617 48.1298 79.717 47.7388 79.85 40.8538C79.932 36.5588 80.526 28.7638 81.169 23.5308C82.263 14.6308 82.473 14.0528 84.419 14.5758C85.564 14.8828 87.264 15.1408 88.198 15.1478ZM55.5 19.1618C54.718 20.4278 56.042 20.4278 58 19.1618C59.293 18.3268 59.266 18.1908 57.809 18.1768C56.879 18.1688 55.84 18.6118 55.5 19.1618ZM22 27.5408C22 30.4308 22.831 31.6118 27.75 35.7128L33.5 40.5078L28.25 35.0528C23.142 29.7468 21.631 25.8808 24.25 24.8238C24.997 24.5228 24.795 24.2878 23.75 24.2408C22.413 24.1808 22 24.9588 22 27.5408ZM62.116 29.3128C61.857 39.6718 69.803 74.2958 73.212 77.6618C74.346 78.7808 74.481 79.3278 70.015 64.7558C68.346 59.3068 67.13 54.6988 67.313 54.5148C67.497 54.3318 69.135 57.5678 70.955 61.7068C72.774 65.8468 74.477 69.0188 74.739 68.7568C75.001 68.4938 73.044 63.4158 70.389 57.4708C66.548 48.8688 65.222 44.4148 63.898 35.6618C62.678 27.6038 62.202 25.9058 62.116 29.3128ZM12.662 29.7798C11.1 30.6258 10.046 31.5408 10.319 31.8138C10.852 32.3468 17 29.4238 17 28.6358C17 27.8178 15.601 28.1868 12.662 29.7798ZM23.157 35.1158C25.504 37.8408 27.617 39.8778 27.853 39.6418C28.484 39.0108 21.039 30.1618 19.878 30.1618C19.334 30.1618 20.809 32.3918 23.157 35.1158ZM32.31 47.0128C42.44 55.4868 52.57 66.1608 57.768 73.8378C61.978 80.0568 65.355 86.1738 64.824 86.6188C62.978 88.1678 60.025 89.0118 59.488 88.1428C59.115 87.5388 58.132 88.0128 57.09 89.2998C55.256 91.5638 53 91.1638 53 88.5738C53 86.5088 46.994 74.8348 46.292 75.5368C45.975 75.8538 46.203 76.7018 46.8 77.4208C48.081 78.9648 52.117 88.1618 51.513 88.1618C51.285 88.1618 49.475 85.2608 47.493 81.7148C45.51 78.1688 43.35 75.4488 42.694 75.6698C42.037 75.8908 39.925 73.5538 38 70.4768C36.075 67.3998 31.191 61.3448 27.146 57.0218C23.101 52.6988 20.101 49.1618 20.478 49.1618C21.46 49.1618 29.671 55.7628 35.332 61.1038C37.99 63.6108 41.283 67.8438 42.65 70.5108C44.016 73.1788 45.365 75.1298 45.647 74.8478C45.929 74.5658 45.344 73.0588 44.347 71.4988C42.699 68.9188 42.692 68.7868 44.267 70.0338C45.22 70.7888 46 70.9818 46 70.4618C46 69.2418 30.714 54.4328 25.5 50.6008C18.863 45.7238 18.595 45.3458 19.846 42.6008C20.457 41.2588 21.669 40.1618 22.538 40.1618C23.408 40.1618 27.805 43.2448 32.31 47.0128ZM23.362 43.8558C22.789 46.1388 23.205 46.9278 26.093 49.0368C33.169 54.2038 52.458 75.0348 47.1 71.7238C45.301 70.6118 45.838 72.0818 48.508 75.5838C49.887 77.3918 52.39 81.2998 54.068 84.2668C55.747 87.2338 56.838 88.6488 56.493 87.4118C56.118 86.0678 56.305 85.1618 56.958 85.1618C59.547 85.1618 49.622 70.0378 40.951 60.7688C37.675 57.2658 32.584 52.5408 29.638 50.2678C25.183 46.8308 24.362 45.7178 24.758 43.6488C25.399 40.2928 24.212 40.4678 23.362 43.8558ZM107 44.1828C107 44.7448 105.875 45.7168 104.5 46.3438C103.125 46.9698 102 47.8908 102 48.3898C102 49.4808 104.799 48.6608 111.5 45.6058L116.5 43.3258L111.75 43.2438C109.13 43.1988 107 43.6198 107 44.1828ZM104.72 61.6618C105.051 66.0618 105.699 70.7868 106.159 72.1618C106.673 73.6938 106.796 71.4808 106.478 66.4428C106.192 61.9218 105.544 57.1968 105.038 55.9428C104.43 54.4348 104.322 56.3728 104.72 61.6618ZM16 59.6618C16.685 60.4868 17.695 61.1618 18.245 61.1618C18.803 61.1618 18.694 60.4988 18 59.6618C17.315 58.8368 16.305 58.1618 15.755 58.1618C15.197 58.1618 15.306 58.8248 16 59.6618ZM101.937 72.5268C100.987 73.4028 100.853 73.2438 101.353 71.8298C101.709 70.8228 102.061 69.2478 102.136 68.3298C102.211 67.4128 102.474 67.7258 102.721 69.0268C102.968 70.3278 102.615 71.9028 101.937 72.5268ZM116.079 71.7448C116.127 72.9098 116.364 73.1468 116.683 72.3498C116.972 71.6278 116.936 70.7648 116.604 70.4328C116.272 70.1008 116.036 70.6908 116.079 71.7448ZM117.116 76.8458C116.96 79.7788 121.447 101.49 124.518 112.662C127.687 124.191 127.074 120.219 122.126 97.1618C116.808 72.3818 117.256 74.2008 117.116 76.8458ZM103 78.1308C103 78.6628 103.675 78.8398 104.5 78.5238C105.325 78.2068 106 77.7708 106 77.5548C106 77.3388 105.325 77.1618 104.5 77.1618C103.675 77.1618 103 77.5978 103 78.1308ZM96.099 80.7158C94.228 81.5278 92.948 82.4428 93.254 82.7498C93.561 83.0558 95.541 82.3938 97.656 81.2778C102.115 78.9258 101.083 78.5528 96.099 80.7158ZM101.5 83.7978C78.131 92.6188 73.937 94.1258 66 96.5478C61.325 97.9758 56.838 99.5728 56.029 100.098C53.48 101.753 55.681 102.378 58.657 100.845C60.221 100.039 65.775 98.0178 71 96.3548C84.398 92.0878 103.771 84.8598 108.5 82.3628C114.096 79.4068 111.983 79.8408 101.5 83.7978ZM42 81.6818C42 81.9678 43.125 83.9838 44.5 86.1618C45.875 88.3398 47 90.3358 47 90.5968C47 90.8578 45.313 91.3428 43.25 91.6738C36.033 92.8348 35 93.2108 35 94.6808C35 96.6898 36.043 96.5598 42.371 93.7608C46.32 92.0148 48.099 91.6608 48.899 92.4608C50.983 94.5448 49.992 92.1888 46.469 86.6808C43.257 81.6598 42 80.2538 42 81.6818ZM107.835 87.0388C108.833 87.6718 108.593 88.0348 106.878 88.4838C105.618 88.8128 104.843 89.3378 105.155 89.6498C105.467 89.9628 107.007 89.7298 108.577 89.1328C110.857 88.2658 111.137 87.8598 109.966 87.1198C109.16 86.6098 108.05 86.1928 107.5 86.1928C106.95 86.1928 107.101 86.5728 107.835 87.0388ZM89.5 91.5848C84.55 93.4118 78.475 95.7938 76 96.8768C73.525 97.9598 70.15 99.1548 68.5 99.5328C64.956 100.343 46.659 109.298 46.146 110.473C45.952 110.919 44.848 110.469 43.694 109.473C42.458 108.407 42.95 109.513 44.89 112.162C49.963 119.091 59.218 132.976 63.388 139.912C65.454 143.35 67.346 146.162 67.593 146.162C68.442 146.162 63.746 137.75 58.133 129.218C55.037 124.512 52.372 120.381 52.211 120.037C52.049 119.694 53.792 118.662 56.083 117.745C58.375 116.828 59.987 115.816 59.666 115.495C59.346 115.174 57.272 115.808 55.058 116.903L51.033 118.895L48.517 115.595C45.495 111.634 45.431 111.162 47.917 111.162C48.971 111.162 49.983 110.798 50.167 110.353C50.82 108.767 61.598 103.307 67.347 101.649C70.563 100.722 75.288 99.0288 77.847 97.8858C80.406 96.7428 87.225 94.1108 93 92.0368C98.775 89.9618 102.375 88.2648 101 88.2638C99.625 88.2628 94.45 89.7568 89.5 91.5848ZM41 90.1308C41 90.6628 41.675 90.8398 42.5 90.5238C43.325 90.2068 44 89.7708 44 89.5548C44 89.3388 43.325 89.1618 42.5 89.1618C41.675 89.1618 41 89.5978 41 90.1308ZM112.5 91.7598L109.5 93.1728L112.498 92.5858C115.628 91.9728 116.62 91.4418 115.917 90.7538C115.688 90.5298 114.15 90.9828 112.5 91.7598ZM103.065 93.2608C101.726 93.7958 100.034 94.0048 99.304 93.7248C97.597 93.0698 57.927 107.148 55.273 109.351C53.056 111.19 54.63 111.405 57.907 109.71C62.951 107.101 77.209 102.305 78.475 102.791C79.548 103.202 99.214 96.7198 106.439 93.5728C108.655 92.6078 108.948 92.2468 107.5 92.2648C106.4 92.2778 104.404 92.7258 103.065 93.2608ZM46 94.8058C39.577 96.8858 36 98.4608 36 99.2088C36 99.6938 38.062 99.2068 40.583 98.1258C43.104 97.0458 45.804 96.1618 46.583 96.1618C47.362 96.1618 48 95.7118 48 95.1618C48 94.6118 47.888 94.1978 47.75 94.2408C47.612 94.2838 46.825 94.5378 46 94.8058ZM105.5 97.7398C95.603 101.175 95.657 101.152 96.251 101.746C96.905 102.4 112.119 97.4008 113.45 96.0948C114.867 94.7028 113.341 95.0188 105.5 97.7398ZM49.25 97.8238C48.563 98.1018 48 98.7268 48 99.2138C48 99.7008 48.749 99.8118 49.664 99.4608C50.872 98.9968 51.104 99.1848 50.51 100.147C49.976 101.009 50.078 101.232 50.802 100.784C51.623 100.277 51.467 96.7858 50.643 97.2408C50.564 97.2838 49.938 97.5468 49.25 97.8238ZM41.662 99.7798C40.1 100.626 39.019 101.514 39.258 101.753C39.769 102.264 47 99.3638 47 98.6488C47 97.7178 44.482 98.2518 41.662 99.7798ZM84 100.071C83.175 100.538 81.375 101.195 80 101.531C77.916 102.04 77.999 101.902 80.5 100.697C83.705 99.1538 86.508 98.6518 84 100.071ZM82.5 103.087C78.1 104.613 72.7 106.766 70.5 107.873C68.3 108.979 65.964 109.693 65.31 109.46C64.655 109.226 62.855 109.765 61.31 110.656C58.633 112.2 58.619 112.247 61 111.643C62.375 111.294 64.625 110.881 66 110.725C67.375 110.57 70.979 109.327 74.008 107.964C77.037 106.601 82.55 104.477 86.258 103.243C92.632 101.121 94.557 100.068 91.75 100.237C91.063 100.279 86.9 101.561 82.5 103.087ZM43.188 102.845C40.816 103.684 39.098 104.593 39.37 104.866C39.982 105.477 47.146 103.248 48.45 102.041C49.781 100.809 48.308 101.034 43.188 102.845ZM96 106.009C84.112 110.534 72.419 116.015 74.441 116.115C74.959 116.141 74.509 116.86 73.441 117.714C71.575 119.205 71.597 119.24 74 118.612C77.898 117.593 98.083 108.912 97.623 108.452C97.397 108.226 93.701 109.405 89.409 111.071C85.117 112.738 81.438 113.934 81.234 113.729C80.808 113.303 106.507 103.162 108.012 103.162C108.555 103.162 109 102.712 109 102.162C109 100.924 110.616 100.446 96 106.009ZM51.029 103.123C50.22 103.635 49.803 104.298 50.102 104.597C50.401 104.897 51.513 104.485 52.573 103.683C54.681 102.088 53.4 101.623 51.029 103.123ZM90.815 104.7C89.339 105.502 86.505 106.366 84.519 106.62C80.644 107.116 67.08 113.355 68.701 113.896C69.237 114.074 73.686 112.807 78.588 111.079C88.125 107.717 97.468 103.259 95 103.249C94.175 103.245 92.292 103.898 90.815 104.7ZM45.029 106.123C44.22 106.635 43.803 107.298 44.102 107.597C44.401 107.897 45.513 107.485 46.573 106.683C48.681 105.088 47.4 104.623 45.029 106.123ZM50.143 112.052C49.292 112.592 49.165 113.146 49.803 113.54C51.174 114.388 54.13 113.181 53.435 112.057C52.749 110.946 51.891 110.945 50.143 112.052ZM100.5 115.543C87.1 120.315 77.739 124.234 78.33 124.825C78.923 125.418 114 112.36 114 111.546C114 110.825 112.493 111.271 100.5 115.543ZM54.134 113.794C52.282 114.602 51.03 115.526 51.352 115.847C52.135 116.63 58 114.155 58 113.041C58 112.557 57.888 112.199 57.75 112.244C57.612 112.288 55.985 112.986 54.134 113.794ZM84 116.872C76.668 119.818 76.448 119.944 77.236 120.731C77.549 121.044 81.111 119.733 85.152 117.818C93.842 113.7 93.201 113.174 84 116.872ZM60.32 117.51C56.049 118.687 53.628 120.162 55.967 120.162C57.981 120.162 65.388 117.923 66.45 116.993C67.709 115.892 65.526 116.076 60.32 117.51ZM62.25 120.871C59.362 121.722 57 122.796 57 123.259C57 123.721 57.749 123.812 58.664 123.461C59.847 123.007 60.1 123.191 59.539 124.099C58.451 125.86 62.303 124.626 67.5 121.549C72.203 118.765 70.251 118.512 62.25 120.871ZM85.799 125.055C81.563 126.585 77.513 128.29 76.799 128.844C76.084 129.398 73.351 130.433 70.724 131.144C68.098 131.855 65.709 132.825 65.415 133.299C65.122 133.774 65.052 134.162 65.259 134.162C66.913 134.162 77.649 130.415 82.572 128.12C85.912 126.563 89.853 124.986 91.331 124.615C92.81 124.244 94.266 123.54 94.568 123.051C95.379 121.74 94.287 121.99 85.799 125.055ZM65.75 124.824C63.138 125.624 61 126.678 61 127.166C61 128.171 70.988 125.471 72.45 124.071C73.765 122.813 71.482 123.07 65.75 124.824ZM87.583 127.175C84.879 128.231 82.179 129.594 81.583 130.205C80.988 130.815 82.938 130.394 85.918 129.27C88.897 128.146 91.8 126.762 92.368 126.194C93.721 124.841 93.387 124.909 87.583 127.175ZM66.5 128.162C64.3 129.18 63.143 130.047 63.929 130.088C66.038 130.197 72 127.887 72 126.961C72 125.842 71.077 126.043 66.5 128.162ZM128 131.162C128 131.712 128.477 132.162 129.059 132.162C129.641 132.162 129.84 131.712 129.5 131.162C129.16 130.612 128.684 130.162 128.441 130.162C128.198 130.162 128 130.612 128 131.162ZM86 133.339C84.625 133.917 84.036 134.592 84.69 134.839C85.345 135.087 87.145 134.603 88.69 133.765C91.859 132.048 89.836 131.727 86 133.339ZM104.5 137.216C97.9 139.88 92.05 142.245 91.5 142.473C90.95 142.702 90.738 143.15 91.029 143.471C91.573 144.07 110.136 136.789 115.5 133.873C120.669 131.063 116.938 132.197 104.5 137.216ZM68.5 134.626C66.85 135.381 66.175 136.016 67 136.036C67.825 136.056 69.85 135.454 71.5 134.698C73.15 133.943 73.825 133.308 73 133.288C72.175 133.268 70.15 133.87 68.5 134.626ZM94.5 136.408C89.55 138.106 86.093 139.693 86.817 139.934C88.251 140.412 102.907 135.535 104.45 134.066C105.925 132.662 104.307 133.043 94.5 136.408ZM89.25 135.409C87.463 135.982 86 136.813 86 137.255C86 138.155 91.974 136.367 93.45 135.026C94.648 133.937 93.517 134.04 89.25 135.409ZM69.5 137.162C67.572 137.991 67.579 138.024 69.691 138.092C70.896 138.13 72.16 137.712 72.5 137.162C73.231 135.979 72.252 135.979 69.5 137.162ZM122 137.162C121.175 137.695 120.95 138.131 121.5 138.131C122.05 138.131 123.175 137.695 124 137.162C124.825 136.629 125.05 136.193 124.5 136.193C123.95 136.193 122.825 136.629 122 137.162ZM112.366 141.138C108.992 142.693 100.442 146.1 93.366 148.708C86.29 151.315 79.425 153.847 78.111 154.334C76.798 154.82 75.934 155.429 76.192 155.688C77.151 156.647 106.563 145.514 115.852 140.676C122.215 137.362 119.888 137.67 112.366 141.138ZM73.5 143.162C72.718 144.428 74.042 144.428 76 143.162C77.293 142.327 77.266 142.191 75.809 142.177C74.879 142.169 73.84 142.612 73.5 143.162ZM74.5 145.713L71.5 147.173L74.5 146.597C76.15 146.28 77.927 145.602 78.45 145.091C79.855 143.717 78 144.009 74.5 145.713ZM85 146.714C79.76 148.365 77.878 148.534 80 147.162C81.969 145.89 79.886 145.875 76.565 147.137C75.154 147.674 74 148.847 74 149.744C74 150.808 74.54 151.169 75.552 150.78C76.442 150.439 76.843 150.607 76.493 151.173C75.611 152.601 76.863 152.415 83.723 150.098C87.085 148.963 90.083 147.388 90.386 146.598C91.044 144.884 90.788 144.89 85 146.714ZM70 151.162C70 151.712 70.477 152.162 71.059 152.162C71.641 152.162 71.84 151.712 71.5 151.162C71.16 150.612 70.684 150.162 70.441 150.162C70.198 150.162 70 150.612 70 151.162Z" fill="#F64B3C"/>
</svg>
