<svg width="93" height="93" viewBox="0 0 93 93" fill="none" xmlns="http://www.w3.org/2000/svg">
<path fill-rule="evenodd" clip-rule="evenodd" d="M50.198 3.328C48.439 5.331 47 7.598 47 8.364C47 9.131 46.34 10.418 45.534 11.224C44.728 12.03 42.978 15.1 41.646 18.046C39.106 23.661 36.086 28.134 36.032 26.361C36.014 25.789 34.228 23.363 32.063 20.97C28.644 17.193 27.473 16.557 23.179 16.144C20.459 15.883 16.493 16.223 14.367 16.899C9.795 18.354 3.106 25.123 2.311 29.098C2.002 30.64 1.356 31.901 0.875 31.901C0.394 31.901 0 32.801 0 33.901C0 35.001 0.45 35.901 1 35.901C1.55 35.901 2.033 36.689 2.073 37.651C2.194 40.534 5.454 45.263 8.574 47.078C10.296 48.08 14.792 49.031 19.5 49.388C28.04 50.036 35 51.686 35 53.061C35 53.523 34.464 53.901 33.809 53.901C33.154 53.901 33.417 54.486 34.395 55.2C36.943 57.064 36.226 62.297 33.367 62.705C31.759 62.935 30.971 62.257 30.169 59.955C29.583 58.275 28.631 56.901 28.052 56.901C26.272 56.901 26.883 60.431 29.282 64.003C33.598 70.428 42.447 68.509 43.583 60.901C44.028 57.924 43.594 56.853 40.679 53.733C36.712 49.486 32.806 48.141 21 46.952C10.377 45.882 7.977 44.785 5.625 39.923C2.412 33.284 5.472 24.605 11.974 21.912C13.638 21.222 15 20.283 15 19.825C15 18.638 21.559 17.562 24.243 18.309C25.485 18.654 27.85 20.741 29.5 22.946C31.15 25.151 32.955 27.506 33.512 28.178C34.068 28.851 35.071 30.64 35.741 32.153C37.237 35.533 42.519 38.892 46.346 38.897C47.911 38.899 50.498 37.97 52.096 36.833C58.177 32.502 53.944 21.862 46.715 23.308C44.981 23.655 43.098 24.412 42.531 24.991C41.812 25.725 42.376 25.826 44.399 25.326C46.287 24.859 47.078 24.966 46.665 25.634C45.937 26.812 39.736 29.901 38.099 29.901C36.196 29.901 36.902 27.341 39.471 24.928C40.83 23.652 42.44 21.098 43.049 19.254C43.657 17.41 44.549 15.901 45.031 15.901C45.512 15.901 46.845 13.78 47.991 11.188C50.948 4.504 52.69 2.901 56.994 2.901C60.546 2.901 67.875 7.154 67.964 9.267C67.984 9.743 69.575 12.279 71.5 14.901C73.425 17.523 75.001 20.059 75.001 20.535C75.002 21.011 76.164 22.751 77.585 24.401C79.993 27.198 85.96 39 87.562 44.135C87.951 45.381 88.723 46.692 89.278 47.048C90.582 47.886 90.595 58.905 89.292 59.754C88.746 60.11 87.077 62.351 85.584 64.735C84.09 67.119 81.467 69.819 79.753 70.735C78.039 71.651 75.669 73.399 74.485 74.618C72.334 76.832 59.162 82.926 53.51 84.322C51.866 84.727 50.272 85.46 49.97 85.95C49.201 87.194 35.793 89.901 30.403 89.901C24.219 89.901 19.224 87.643 18.433 84.49C17.629 81.288 18.231 75.667 20.507 65.131C22.11 57.706 22.076 54.492 20.412 56.156C19.504 57.063 15.077 77.999 15.036 81.574C14.986 85.97 18.989 90.485 23.744 91.396C30.886 92.765 34.522 92.863 40 91.831C45.908 90.717 58.179 86.836 59 85.821C59.275 85.481 63.405 83.304 68.177 80.983C72.949 78.662 77.742 75.992 78.829 75.05C90.283 65.115 93 60.887 93 52.993C93 48.227 90.727 39.999 89.119 38.942C88.666 38.644 86.702 35.209 84.754 31.307C80.593 22.974 78.725 19.59 77.904 18.901C77.577 18.626 75.463 15.701 73.207 12.401C67.914 4.659 62.94 0.760997 57.581 0.156997C53.759 -0.274003 53.119 0.000997066 50.198 3.328ZM51.032 8.651C51.049 9.063 51.724 10.275 52.532 11.342C54.029 13.322 54.487 12.334 53.393 9.483C52.782 7.891 50.973 7.254 51.032 8.651ZM55 9.901C55 11.001 55.45 11.901 56 11.901C56.55 11.901 57 11.001 57 9.901C57 8.801 56.55 7.901 56 7.901C55.45 7.901 55 8.801 55 9.901ZM59.158 9.901C59.158 11.276 59.385 11.839 59.662 11.151C59.94 10.464 59.94 9.339 59.662 8.651C59.385 7.964 59.158 8.526 59.158 9.901ZM62.98 12.425C62.284 13.263 61.968 14.202 62.276 14.511C62.585 14.82 63.34 14.134 63.954 12.987C65.264 10.539 64.778 10.259 62.98 12.425ZM50 14.46C50 15.317 50.45 15.741 51 15.401C51.55 15.061 52 14.36 52 13.842C52 13.324 51.55 12.901 51 12.901C50.45 12.901 50 13.603 50 14.46ZM66.429 14.33C65.37 15.104 64.76 15.995 65.075 16.309C65.389 16.623 66.512 16.247 67.571 15.472C68.63 14.698 69.24 13.807 68.925 13.493C68.611 13.179 67.488 13.555 66.429 14.33ZM68.607 20.483C67.74 22.743 67.823 22.906 69.511 22.258C70.642 21.824 70.857 22.147 70.364 23.54C69.851 24.99 69.981 25.147 70.952 24.252C71.674 23.586 71.918 22.218 71.532 21.002C70.741 18.509 69.452 18.281 68.607 20.483ZM52.597 28.432C54.118 34.492 49.901 37.815 43.426 35.658C37.993 33.848 37.861 32.02 43.206 32.614C46.588 32.99 48.012 32.646 49.91 30.99C52.66 28.592 52.174 27.202 49.151 28.82C48.04 29.415 46.402 29.901 45.51 29.901C44.336 29.901 44.655 29.242 46.661 27.516C49.826 24.794 51.759 25.092 52.597 28.432ZM72.5 25.901C72.16 26.451 72.359 26.901 72.941 26.901C73.523 26.901 74 26.451 74 25.901C74 25.351 73.802 24.901 73.559 24.901C73.316 24.901 72.84 25.351 72.5 25.901ZM74.5 28.901C74.16 29.451 74.332 29.901 74.882 29.901C75.432 29.901 76.16 29.451 76.5 28.901C76.84 28.351 76.668 27.901 76.118 27.901C75.568 27.901 74.84 28.351 74.5 28.901ZM8.158 33.901C8.158 35.276 8.385 35.839 8.662 35.151C8.94 34.464 8.94 33.339 8.662 32.651C8.385 31.964 8.158 32.526 8.158 33.901ZM11.25 36.932C10.012 37.43 9 38.076 9 38.369C9 39.339 10.592 38.921 12.559 37.433C14.771 35.759 14.462 35.641 11.25 36.932ZM14.128 39.801C13.374 40.279 12.924 41.107 13.128 41.64C13.333 42.174 14.366 41.776 15.425 40.756C17.4 38.853 16.579 38.248 14.128 39.801ZM18.046 41.815C17.272 43.262 17.257 43.901 17.996 43.901C19.209 43.901 20.529 41.096 19.705 40.272C19.406 39.974 18.66 40.668 18.046 41.815ZM36.079 47.484C36.127 48.649 36.364 48.886 36.683 48.089C36.972 47.367 36.936 46.504 36.604 46.172C36.272 45.84 36.036 46.43 36.079 47.484ZM39.5 48.901C38.684 50.221 39.88 52.093 41.069 51.358C42.284 50.608 42.276 47.901 41.059 47.901C40.541 47.901 39.84 48.351 39.5 48.901ZM43.667 50.568C43.3 50.934 43 51.866 43 52.639C43 53.803 43.257 53.787 44.5 52.544C45.325 51.719 46 50.787 46 50.472C46 49.69 44.483 49.752 43.667 50.568ZM27.158 53.901C27.158 55.276 27.385 55.839 27.662 55.151C27.94 54.464 27.94 53.339 27.662 52.651C27.385 51.964 27.158 52.526 27.158 53.901ZM39.523 57.295C41.319 60.037 40.596 64.901 38.392 64.901C37.388 64.901 37 63.506 37 59.901C37 57.151 37.215 54.901 37.477 54.901C37.739 54.901 38.66 55.978 39.523 57.295ZM54.658 56.35C54.286 57.319 54.582 57.615 55.551 57.243C56.348 56.937 57 56.285 57 55.794C57 54.356 55.265 54.768 54.658 56.35ZM25.403 62.502C26.107 65.44 33.729 73.505 34.795 72.44C35.113 72.121 33.49 70.219 31.187 68.213C28.884 66.207 27 63.768 27 62.792C27 61.817 26.484 60.7 25.854 60.311C25.04 59.807 24.909 60.441 25.403 62.502ZM51.75 61.293C50.788 62.024 50 63.089 50 63.661C50 64.233 46.737 66.311 42.75 68.279C35.661 71.779 35.328 73.045 42.101 70.748C46.971 69.096 50.799 66.19 52.541 62.822C54.243 59.53 54.195 59.437 51.75 61.293ZM21.5 71.901C21.16 72.451 21.557 72.901 22.382 72.901C23.207 72.901 24.16 72.451 24.5 71.901C24.84 71.351 24.443 70.901 23.618 70.901C22.793 70.901 21.84 71.351 21.5 71.901ZM63.116 73.569C63.052 74.212 62.709 75.562 62.353 76.569C61.851 77.99 61.984 78.145 62.947 77.257C63.629 76.628 63.973 75.278 63.71 74.257C63.447 73.236 63.18 72.927 63.116 73.569ZM58.755 76.401C58.492 77.776 58.665 78.901 59.139 78.901C59.612 78.901 60 77.776 60 76.401C60 75.026 59.827 73.901 59.617 73.901C59.406 73.901 59.018 75.026 58.755 76.401ZM54 77.901C53.411 79.001 53.189 79.901 53.507 79.901C53.824 79.901 55.05 79.001 56.23 77.901C58.014 76.24 58.097 75.901 56.724 75.901C55.814 75.901 54.589 76.801 54 77.901ZM23 77.901L20.5 78.702L23.191 78.801C24.671 78.856 26.16 78.451 26.5 77.901C27.203 76.764 26.549 76.764 23 77.901ZM25 81.401C22.531 82.352 22.107 82.771 23.559 82.825C24.691 82.867 26.491 82.24 27.559 81.433C29.906 79.658 29.539 79.653 25 81.401ZM43 81.87C43 82.402 43.675 82.579 44.5 82.263C45.325 81.946 46 81.51 46 81.294C46 81.078 45.325 80.901 44.5 80.901C43.675 80.901 43 81.337 43 81.87ZM27.75 83.59C26.788 83.842 26 84.69 26 85.474C26 87.394 26.685 87.273 29.23 84.901C31.36 82.917 31.124 82.709 27.75 83.59Z" fill="#F57E55"/>
</svg>
